<?xml version="1.0" encoding="UTF-8"?>
<!DOCTYPE svg PUBLIC "-//W3C//DTD SVG 1.1//EN" "http://www.w3.org/Graphics/SVG/1.1/DTD/svg11.dtd">
<!-- Creator: CorelDRAW X6 -->
<svg xmlns="http://www.w3.org/2000/svg" xml:space="preserve" width="100%" height="100%" version="1.1" style="shape-rendering:geometricPrecision; text-rendering:geometricPrecision; image-rendering:optimizeQuality; fill-rule:evenodd; clip-rule:evenodd"
viewBox="0 0 500 500"
 xmlns:xlink="http://www.w3.org/1999/xlink">
 <defs>
  <style type="text/css">
   <![CDATA[
    .str0 {stroke:#303030;stroke-width:10}
    .fil3 {fill:#0083DB}
    .fil2 {fill:#F2F2F2}
    .fil1 {fill:url(#id0)}
    .fil0 {fill:url(#id1)}
   ]]>
  </style>
  <linearGradient id="id0" gradientUnits="userSpaceOnUse" x1="359.999" y1="30.001" x2="359.999" y2="470.005">
   <stop offset="0" style="stop-color:#0099FF"/>
   <stop offset="1" style="stop-color:#0083DB"/>
  </linearGradient>
  <linearGradient id="id1" gradientUnits="userSpaceOnUse" x1="140.001" y1="56.841" x2="140.001" y2="450.499">
   <stop offset="0" style="stop-color:#D8D8D8"/>
   <stop offset="1" style="stop-color:#F2F2F2"/>
  </linearGradient>
 </defs>
 <g id="Layer_x0020_1">
  <metadata id="CorelCorpID_0Corel-Layer"/>
  <path class="fil0 str0" d="M250 250l0 220c-122,0 -220,-98 -220,-220 0,-122 98,-220 220,-220l0 220z"/>
  <path class="fil1 str0" d="M250 250l0 -220c122,0 220,98 220,220 0,122 -98,220 -220,220l0 -220z"/>
  <polygon class="fil2" points="290,270 330,270 330,310 370,310 370,270 410,270 410,230 370,230 370,190 330,190 330,230 290,230 "/>
  <rect class="fil3" x="90" y="230" width="119.998" height="39.998"/>
 </g>
</svg>
