<?xml version="1.0" encoding="UTF-8"?>
<!DOCTYPE svg PUBLIC "-//W3C//DTD SVG 1.1//EN" "http://www.w3.org/Graphics/SVG/1.1/DTD/svg11.dtd">
<!-- Creator: CorelDRAW X6 -->
<svg xmlns="http://www.w3.org/2000/svg" xml:space="preserve" width="100%" height="100%" version="1.1" style="shape-rendering:geometricPrecision; text-rendering:geometricPrecision; image-rendering:optimizeQuality; fill-rule:evenodd; clip-rule:evenodd"
viewBox="0 0 500 500"
 xmlns:xlink="http://www.w3.org/1999/xlink">
 <defs>
  <style type="text/css">
   <![CDATA[
    .str0 {stroke:#303030;stroke-width:10}
    .fil0 {fill:url(#id0)}
   ]]>
  </style>
  <linearGradient id="id0" gradientUnits="userSpaceOnUse" x1="54" y1="250.227" x2="446" y2="250.227">
   <stop offset="0" style="stop-color:#0078C8"/>
   <stop offset="0.501961" style="stop-color:#0099FF"/>
   <stop offset="1" style="stop-color:#0078C8"/>
  </linearGradient>
 </defs>
 <g id="Layer_x0020_1">
  <metadata id="CorelCorpID_0Corel-Layer"/>
  <path class="fil0 str0" d="M449 333c-1,-1 -3,-2 -4,-2l-53 0c-2,0 -4,2 -5,4 0,1 0,3 2,5l9 9c1,1 1,3 1,4 0,2 -1,3 -2,4 -30,17 -69,38 -104,39 -11,1 -15,-21 -15,-29l-13 -226c0,-2 2,-4 4,-5 21,-7 36,-27 36,-51 0,-30 -25,-54 -55,-54 -30,0 -55,24 -55,54 0,24 15,44 36,51 2,1 4,3 4,5l-13 226c0,8 -4,30 -15,29 -35,-1 -74,-22 -104,-39 -1,-1 -2,-2 -2,-4 0,-1 0,-3 1,-4l9 -9c2,-2 2,-4 2,-5 -1,-2 -3,-4 -5,-4l-53 0c-1,0 -3,1 -4,2 0,1 -1,2 -1,3l0 53c0,2 1,4 3,4 2,1 4,1 6,-1l10 -10c2,-2 5,-2 7,-1 79,70 131,40 171,87 1,2 5,2 6,0 40,-47 92,-17 171,-87 2,-1 5,-1 7,1l10 10c2,2 4,2 6,1 2,0 3,-2 3,-4l0 -53c0,-1 -1,-2 -1,-3zm-199 -277c16,0 30,13 30,29 0,17 -13,30 -30,30 -16,0 -30,-13 -30,-30 0,-16 14,-29 30,-29z"/>
 </g>
</svg>
