<?xml version="1.0" encoding="UTF-8"?>
<!DOCTYPE svg PUBLIC "-//W3C//DTD SVG 1.1//EN" "http://www.w3.org/Graphics/SVG/1.1/DTD/svg11.dtd">
<!-- Creator: CorelDRAW X6 -->
<svg xmlns="http://www.w3.org/2000/svg" xml:space="preserve" width="100%" height="100%" version="1.1" style="shape-rendering:geometricPrecision; text-rendering:geometricPrecision; image-rendering:optimizeQuality; fill-rule:evenodd; clip-rule:evenodd"
viewBox="0 0 500 500"
 xmlns:xlink="http://www.w3.org/1999/xlink">
 <defs>
  <style type="text/css">
   <![CDATA[
    .str0 {stroke:#303030;stroke-width:10}
    .str1 {stroke:#333333;stroke-width:30}
    .fil1 {fill:none}
    .fil0 {fill:url(#id0)}
   ]]>
  </style>
  <linearGradient id="id0" gradientUnits="userSpaceOnUse" x1="250" y1="173.191" x2="250" y2="429.191">
   <stop offset="0" style="stop-color:#0078C8"/>
   <stop offset="1" style="stop-color:#17A2FF"/>
  </linearGradient>
 </defs>
 <g id="Layer_x0020_1">
  <metadata id="CorelCorpID_0Corel-Layer"/>
  <path class="fil0 str0" d="M175 461l150 0 0 -35c0,-14 -11,-25 -25,-25l-35 -183c15,-6 25,-20 25,-37 0,-22 -18,-40 -40,-40 -22,0 -40,18 -40,40 0,17 10,31 25,37l-35 183c-14,0 -25,11 -25,25l0 35z"/>
  <path class="fil1 str1" d="M187 241c-15,-15 -24,-37 -24,-60 0,-23 9,-45 25,-61m-39 160c-26,-26 -42,-61 -42,-99 0,-38 16,-74 42,-100m-43 242c-37,-37 -59,-88 -59,-142 0,-54 22,-105 60,-142m206 202c15,-15 24,-37 24,-60 0,-23 -9,-45 -25,-61m39 160c26,-26 42,-61 42,-99 0,-38 -16,-74 -42,-100m43 242c37,-37 59,-88 59,-142 0,-54 -22,-105 -60,-142"/>
 </g>
</svg>
