<?xml version="1.0" encoding="UTF-8"?>
<!DOCTYPE svg PUBLIC "-//W3C//DTD SVG 1.1//EN" "http://www.w3.org/Graphics/SVG/1.1/DTD/svg11.dtd">
<!-- Creator: CorelDRAW X6 -->
<svg xmlns="http://www.w3.org/2000/svg" xml:space="preserve" width="100%" height="100%" version="1.1" style="shape-rendering:geometricPrecision; text-rendering:geometricPrecision; image-rendering:optimizeQuality; fill-rule:evenodd; clip-rule:evenodd"
viewBox="0 0 500 500"
 xmlns:xlink="http://www.w3.org/1999/xlink">
 <defs>
  <style type="text/css">
   <![CDATA[
    .str0 {stroke:#303030;stroke-width:10}
    .fil0 {fill:url(#id0)}
   ]]>
  </style>
  <linearGradient id="id0" gradientUnits="userSpaceOnUse" x1="29.976" y1="250" x2="470.023" y2="250">
   <stop offset="0" style="stop-color:#0083DB"/>
   <stop offset="0.509804" style="stop-color:#17A2FF"/>
   <stop offset="1" style="stop-color:#0083DB"/>
  </linearGradient>
 </defs>
 <g id="Layer_x0020_1">
  <metadata id="CorelCorpID_0Corel-Layer"/>
  <path class="fil0 str0" d="M462 265l-76 77c-4,4 -8,8 -16,8 -7,0 -15,-8 -15,-16l0 -38c0,-4 -4,-8 -8,-8 -65,0 -129,0 -194,0 -4,0 -8,4 -8,8l0 38c0,8 -8,16 -15,16 -8,0 -12,-4 -16,-8l-76 -77c-5,-5 -8,-10 -8,-15 0,-5 3,-10 8,-15l76 -77c4,-4 8,-8 16,-8 7,0 15,8 15,16l0 38c0,4 4,8 8,8 65,0 129,0 194,0 4,0 8,-4 8,-8l0 -38c0,-8 8,-16 15,-16 8,0 12,4 16,8l76 77c5,5 8,10 8,15 0,5 -3,10 -8,15z"/>
 </g>
</svg>
