<?xml version="1.0" encoding="UTF-8"?>
<!DOCTYPE svg PUBLIC "-//W3C//DTD SVG 1.1//EN" "http://www.w3.org/Graphics/SVG/1.1/DTD/svg11.dtd">
<!-- Creator: CorelDRAW X6 -->
<svg xmlns="http://www.w3.org/2000/svg" xml:space="preserve" width="100%" height="100%" version="1.1" style="shape-rendering:geometricPrecision; text-rendering:geometricPrecision; image-rendering:optimizeQuality; fill-rule:evenodd; clip-rule:evenodd"
viewBox="0 0 500 500"
 xmlns:xlink="http://www.w3.org/1999/xlink">
 <defs>
  <style type="text/css">
   <![CDATA[
    .str0 {stroke:#303030;stroke-width:10}
    .fil0 {fill:url(#id0)}
   ]]>
  </style>
  <linearGradient id="id0" gradientUnits="userSpaceOnUse" x1="52.168" y1="250" x2="451.202" y2="250">
   <stop offset="0" style="stop-color:#0078C8"/>
   <stop offset="1" style="stop-color:#17A2FF"/>
  </linearGradient>
 </defs>
 <g id="Layer_x0020_1">
  <metadata id="CorelCorpID_0Corel-Layer"/>
  <path class="fil0 str0" d="M460 230l-140 -140c-5,-5 -10,-10 -20,-10 -10,0 -20,10 -20,20l0 60c0,5 -5,10 -10,10l-230 0c-5,0 -10,5 -10,10 0,47 0,93 0,140 0,5 5,10 10,10l230 0c5,0 10,5 10,10l0 60c0,10 10,20 20,20 10,0 15,-5 20,-10l140 -140c13,-13 13,-27 0,-40z"/>
 </g>
</svg>
