<?xml version="1.0" encoding="UTF-8"?>
<!DOCTYPE svg PUBLIC "-//W3C//DTD SVG 1.1//EN" "http://www.w3.org/Graphics/SVG/1.1/DTD/svg11.dtd">
<!-- Creator: CorelDRAW X6 -->
<svg xmlns="http://www.w3.org/2000/svg" xml:space="preserve" width="100%" height="100%" version="1.1" style="shape-rendering:geometricPrecision; text-rendering:geometricPrecision; image-rendering:optimizeQuality; fill-rule:evenodd; clip-rule:evenodd"
viewBox="0 0 500 500"
 xmlns:xlink="http://www.w3.org/1999/xlink">
 <defs>
  <style type="text/css">
   <![CDATA[
    .str0 {stroke:#303030;stroke-width:10}
    .fil0 {fill:url(#id0)}
   ]]>
  </style>
  <radialGradient id="id0" gradientUnits="objectBoundingBox" cx="50%" cy="50%" r="48%" fx="50%" fy="50%">
   <stop offset="0" style="stop-color:#46B5FF"/>
   <stop offset="1" style="stop-color:#008EED"/>
  </radialGradient>
 </defs>
 <g id="Layer_x0020_1">
  <metadata id="CorelCorpID_0Corel-Layer"/>
  <path class="fil0 str0" d="M238 204c-5,-38 -21,-66 -30,-111 -5,-32 11,-63 42,-63 31,0 47,31 42,63 -9,45 -25,73 -30,111 8,3 16,7 21,13 31,-24 48,-52 82,-82 25,-20 60,-22 76,5 15,27 -4,57 -34,68 -43,15 -76,15 -112,30 2,4 2,8 2,12 0,4 0,8 -2,12 36,15 69,15 112,30 30,11 49,41 34,68 -16,27 -51,25 -76,5 -34,-30 -51,-58 -82,-82 -5,6 -13,10 -21,13 5,38 21,66 30,111 5,32 -11,63 -42,63 -31,0 -47,-31 -42,-63 9,-45 25,-73 30,-111 -8,-3 -16,-7 -21,-13 -31,24 -48,52 -82,82 -25,20 -60,22 -76,-5 -15,-27 4,-57 34,-68 43,-15 76,-15 112,-30 -2,-4 -2,-8 -2,-12 0,-4 0,-8 2,-12 -36,-15 -69,-15 -112,-30 -30,-11 -49,-41 -34,-68 16,-27 51,-25 76,-5 34,30 51,58 82,82 5,-6 13,-10 21,-13z"/>
 </g>
</svg>
