<?xml version="1.0" encoding="UTF-8"?>
<!DOCTYPE svg PUBLIC "-//W3C//DTD SVG 1.1//EN" "http://www.w3.org/Graphics/SVG/1.1/DTD/svg11.dtd">
<!-- Creator: CorelDRAW X6 -->
<svg xmlns="http://www.w3.org/2000/svg" xml:space="preserve" width="100%" height="100%" version="1.1" style="shape-rendering:geometricPrecision; text-rendering:geometricPrecision; image-rendering:optimizeQuality; fill-rule:evenodd; clip-rule:evenodd"
viewBox="0 0 500 500"
 xmlns:xlink="http://www.w3.org/1999/xlink">
 <defs>
  <style type="text/css">
   <![CDATA[
    .str0 {stroke:#434242;stroke-width:10;stroke-linejoin:round}
    .fil2 {fill:#F2F2F2}
    .fil1 {fill:url(#id0)}
    .fil0 {fill:url(#id1)}
   ]]>
  </style>
  <linearGradient id="id0" gradientUnits="userSpaceOnUse" x1="250" y1="308.662" x2="250" y2="83.079">
   <stop offset="0" style="stop-color:#008EED"/>
   <stop offset="1" style="stop-color:#2EACFF"/>
  </linearGradient>
  <linearGradient id="id1" gradientUnits="userSpaceOnUse" x1="250" y1="349.675" x2="250" y2="421.619">
   <stop offset="0" style="stop-color:#BEBEBE"/>
   <stop offset="1" style="stop-color:#F2F2F2"/>
  </linearGradient>
 </defs>
 <g id="Layer_x0020_1">
  <metadata id="CorelCorpID_0Corel-Layer"/>
  <path class="fil0 str0" d="M323 300l0 166c0,5 -6,5 -11,0l-57 -57c-5,-5 -5,-5 -10,0l-57 57c-5,5 -11,5 -11,0l0 -166 146 0z"/>
  <polygon class="fil1 str0" points="133,79 160,79 167,52 193,59 207,36 231,49 250,30 269,49 293,36 307,59 333,52 340,79 367,79 367,106 394,113 387,139 410,153 397,177 416,196 397,215 410,239 387,252 394,279 367,286 367,313 340,313 333,340 307,332 293,356 269,342 250,362 231,342 207,356 193,332 167,340 160,313 133,313 133,286 106,279 113,252 90,239 103,215 84,196 103,177 90,153 113,139 106,113 133,106 "/>
  <circle class="fil2 str0" cx="250" cy="196" r="101"/>
 </g>
</svg>
