<?xml version="1.0" encoding="UTF-8"?>
<!DOCTYPE svg PUBLIC "-//W3C//DTD SVG 1.1//EN" "http://www.w3.org/Graphics/SVG/1.1/DTD/svg11.dtd">
<!-- Creator: CorelDRAW X6 -->
<svg xmlns="http://www.w3.org/2000/svg" xml:space="preserve" width="100%" height="100%" version="1.1" style="shape-rendering:geometricPrecision; text-rendering:geometricPrecision; image-rendering:optimizeQuality; fill-rule:evenodd; clip-rule:evenodd"
viewBox="0 0 500 500"
 xmlns:xlink="http://www.w3.org/1999/xlink">
 <defs>
  <style type="text/css">
   <![CDATA[
    .str0 {stroke:#303030;stroke-width:2.5}
    .fil0 {fill:url(#id0)}
   ]]>
  </style>
  <linearGradient id="id0" gradientUnits="userSpaceOnUse" x1="250" y1="98.099" x2="250" y2="401.901">
   <stop offset="0" style="stop-color:#0099FF"/>
   <stop offset="1" style="stop-color:#0078C8"/>
  </linearGradient>
 </defs>
 <g id="Layer_x0020_1">
  <metadata id="CorelCorpID_0Corel-Layer"/>
  <path class="fil0 str0" d="M20 95l25 0 0 310 -25 0 0 -310zm45 0l25 0 0 250 -25 0 0 -250zm40 0l55 0 0 250 -55 0 0 -250zm90 0l20 0 0 250 -20 0 0 -250zm43 0l40 0 0 250 -40 0 0 -250zm131 0l30 0 0 250 -30 0 0 -250zm-74 0l20 0 0 250 -20 0 0 -250zm120 0l20 0 0 250 -20 0 0 -250zm35 0l30 0 0 310 -30 0 0 -310zm-385 290l20 0 0 20 -20 0 0 -20zm40 0l20 0 0 20 -20 0 0 -20zm40 0l20 0 0 20 -20 0 0 -20zm40 0l20 0 0 20 -20 0 0 -20zm40 0l20 0 0 20 -20 0 0 -20zm40 0l20 0 0 20 -20 0 0 -20zm40 0l20 0 0 20 -20 0 0 -20zm40 0l20 0 0 20 -20 0 0 -20zm40 0l20 0 0 20 -20 0 0 -20z"/>
 </g>
</svg>
