<?xml version="1.0" encoding="UTF-8"?>
<!DOCTYPE svg PUBLIC "-//W3C//DTD SVG 1.1//EN" "http://www.w3.org/Graphics/SVG/1.1/DTD/svg11.dtd">
<!-- Creator: CorelDRAW X6 -->
<svg xmlns="http://www.w3.org/2000/svg" xml:space="preserve" width="100%" height="100%" version="1.1" style="shape-rendering:geometricPrecision; text-rendering:geometricPrecision; image-rendering:optimizeQuality; fill-rule:evenodd; clip-rule:evenodd"
viewBox="0 0 500 500"
 xmlns:xlink="http://www.w3.org/1999/xlink">
 <defs>
  <style type="text/css">
   <![CDATA[
    .str0 {stroke:#303030;stroke-width:10}
    .str1 {stroke:#303030;stroke-width:10;stroke-linejoin:round}
    .fil3 {fill:none}
    .fil0 {fill:#303030}
    .fil2 {fill:url(#id0)}
    .fil1 {fill:url(#id1)}
   ]]>
  </style>
  <linearGradient id="id0" gradientUnits="userSpaceOnUse" x1="155.913" y1="339.545" x2="344.091" y2="339.545">
   <stop offset="0" style="stop-color:#008EED"/>
   <stop offset="0.490196" style="stop-color:#74C7FF"/>
   <stop offset="1" style="stop-color:#008EED"/>
  </linearGradient>
  <linearGradient id="id1" gradientUnits="userSpaceOnUse" x1="159.677" y1="135.313" x2="340.327" y2="135.313">
   <stop offset="0" style="stop-color:#CBCBCB"/>
   <stop offset="0.458824" style="stop-color:#F2F2F2"/>
   <stop offset="1" style="stop-color:#A4A4A4"/>
  </linearGradient>
 </defs>
 <g id="Layer_x0020_1">
  <metadata id="CorelCorpID_0Corel-Layer"/>
  <path class="fil0 str0" d="M344 72c-63,0 -125,0 -188,0 0,-5 0,-12 0,-17 0,-3 2,-5 5,-5l52 0c3,0 6,-2 6,-5l0 -10c0,-3 2,-5 5,-5l52 0c3,0 5,2 5,5l0 10c0,3 3,5 6,5l52 0c3,0 5,2 5,5 0,5 0,12 0,17z"/>
  <path class="fil1 str1" d="M156 209l188 0c0,-54 0,-88 0,-142 0,-3 -2,-5 -5,-5 -59,0 -119,0 -178,0 -3,0 -5,2 -5,5 0,54 0,88 0,142z"/>
  <path class="fil2 str0" d="M344 465c0,3 -2,5 -5,5l-178 0c-3,0 -5,-2 -5,-5l0 -256 188 0 0 256z"/>
  <line class="fil3" x1="156" y1="355" x2="344" y2= "355" />
  <path class="fil0" d="M240 99l20 0 0 21 21 0 0 21 -21 0 0 21 -20 0 0 -21 -21 0 0 -21 21 0 0 -21zm41 283l0 20 -62 0 0 -20 62 0z"/>
 </g>
</svg>
