<?xml version="1.0" encoding="UTF-8"?>
<!DOCTYPE svg PUBLIC "-//W3C//DTD SVG 1.1//EN" "http://www.w3.org/Graphics/SVG/1.1/DTD/svg11.dtd">
<!-- Creator: CorelDRAW X6 -->
<svg xmlns="http://www.w3.org/2000/svg" xml:space="preserve" width="100%" height="100%" version="1.1" style="shape-rendering:geometricPrecision; text-rendering:geometricPrecision; image-rendering:optimizeQuality; fill-rule:evenodd; clip-rule:evenodd"
viewBox="0 0 500 500"
 xmlns:xlink="http://www.w3.org/1999/xlink">
 <defs>
  <style type="text/css">
   <![CDATA[
    .str0 {stroke:#303030;stroke-width:10}
    .fil1 {fill:#303030}
    .fil3 {fill:#F2F2F2}
    .fil0 {fill:url(#id0)}
    .fil2 {fill:url(#id1)}
   ]]>
  </style>
  <linearGradient id="id0" gradientUnits="userSpaceOnUse" x1="51.999" y1="376.751" x2="447.999" y2="376.751">
   <stop offset="0" style="stop-color:#0081D8"/>
   <stop offset="0.478431" style="stop-color:#27A9FF"/>
   <stop offset="1" style="stop-color:#0081D8"/>
  </linearGradient>
  <linearGradient id="id1" gradientUnits="userSpaceOnUse" x1="249.972" y1="177.553" x2="249.972" y2="335.953">
   <stop offset="0" style="stop-color:#CBCBCB"/>
   <stop offset="1" style="stop-color:#E5E5E5"/>
  </linearGradient>
 </defs>
 <g id="Layer_x0020_1">
  <metadata id="CorelCorpID_0Corel-Layer"/>
  <path class="fil0 str0" d="M40 367c0,5 -1,10 -10,10 0,10 0,20 0,30l440 0c0,-10 0,-20 0,-30 -5,0 -10,-5 -10,-10l0 -10c0,-6 -5,-10 -10,-10l-400 0c-5,0 -10,4 -10,10l0 10z"/>
  <path class="fil1" d="M222 94c16,-1 39,-1 56,1 2,0 3,1 4,2 0,2 0,4 -1,5l-6 9c-1,2 -2,3 -4,3l-4 0c-3,0 -5,2 -5,5l0 7c0,3 2,5 5,5l13 0c13,0 24,11 24,24l0 13c0,3 -3,5 -5,5l-98 0c-2,0 -5,-2 -5,-5l0 -13c0,-13 11,-24 24,-24l13 0c3,0 5,-2 5,-5l0 -7c0,-3 -2,-5 -5,-5l-4 0c-2,0 -3,-1 -4,-3l-6 -9c-1,-1 -2,-3 -1,-5 1,-1 2,-2 4,-3z"/>
  <path class="fil2 str0" d="M50 347c0,-135 91,-180 198,-180 111,0 202,45 202,180l-400 0z"/>
  <path class="fil3" d="M78 331c0,-111 73,-148 158,-148 6,0 11,0 17,0 -79,5 -142,44 -142,148l-33 0z"/>
 </g>
</svg>
