<?xml version="1.0" encoding="UTF-8"?>
<!DOCTYPE svg PUBLIC "-//W3C//DTD SVG 1.1//EN" "http://www.w3.org/Graphics/SVG/1.1/DTD/svg11.dtd">
<!-- Creator: CorelDRAW X6 -->
<svg xmlns="http://www.w3.org/2000/svg" xml:space="preserve" width="100%" height="100%" version="1.1" style="shape-rendering:geometricPrecision; text-rendering:geometricPrecision; image-rendering:optimizeQuality; fill-rule:evenodd; clip-rule:evenodd"
viewBox="0 0 472 453"
 xmlns:xlink="http://www.w3.org/1999/xlink">
 <defs>
  <style type="text/css">
   <![CDATA[
    .str1 {stroke:#303030;stroke-width:10}
    .str0 {stroke:#303030;stroke-width:10;stroke-linejoin:round}
    .fil5 {fill:none}
    .fil1 {fill:#0099FF}
    .fil0 {fill:#303030}
    .fil3 {fill:#505050}
    .fil2 {fill:#8A8A8A}
    .fil4 {fill:url(#id0)}
   ]]>
  </style>
  <linearGradient id="id0" gradientUnits="objectBoundingBox" x1="15.0001%" y1="49.9999%" x2="85.0004%" y2="49.9999%">
   <stop offset="0" style="stop-color:#B1B1B1"/>
   <stop offset="0.501961" style="stop-color:#E5E5E5"/>
   <stop offset="1" style="stop-color:#B1B1B1"/>
  </linearGradient>
 </defs>
 <g id="Layer_x0020_1">
  <metadata id="CorelCorpID_0Corel-Layer"/>
  <path class="fil0" d="M177 16l0 -12c0,-2 -2,-4 -4,-4l-123 0c-3,0 -5,2 -5,4l0 12 17 33 99 0 16 -33zm118 0l0 -12c0,-2 2,-4 4,-4l124 0c2,0 4,2 4,4l0 12 -17 33 -99 0 -16 -33z"/>
  <path class="fil1" d="M45 453l108 0c9,0 16,-7 16,-16l0 0 -140 0 0 0c0,9 7,16 16,16z"/>
  <rect class="fil2" x="197" y="74" width="77.9833" height="173.131"/>
  <rect class="fil3" x="227" y="111" width="16.4919" height="136.269"/>
  <rect class="fil0" x="195" y="74" width="79.9972" height="76.9464"/>
  <path class="fil4 str0" d="M186 74l0 -25 -149 0 0 25 -16 0 -16 165c0,4 3,8 7,8l9 0 -9 184c0,3 4,6 9,6l156 0c5,0 9,-3 9,-6l0 -184 16 0 0 -173 -16 0z"/>
  <path class="fil1" d="M427 453l-108 0c-9,0 -16,-7 -16,-16l0 0 140 0 0 0c0,9 -7,16 -16,16z"/>
  <path class="fil4 str0" d="M286 74l0 -25 149 0 0 25 16 0 16 165c0,4 -3,8 -7,8l-9 0 9 184c0,3 -4,6 -9,6l-156 0c-5,0 -9,-3 -9,-6l0 -184 -16 0 0 -173 16 0z"/>
  <path class="fil5 str1" d="M21 247l165 0m-149 -173l149 0"/>
  <path class="fil5 str1" d="M286 247l165 0m-165 -173l149 0"/>
 </g>
</svg>
