<?xml version="1.0" encoding="UTF-8"?>
<!DOCTYPE svg PUBLIC "-//W3C//DTD SVG 1.1//EN" "http://www.w3.org/Graphics/SVG/1.1/DTD/svg11.dtd">
<!-- Creator: CorelDRAW X6 -->
<svg xmlns="http://www.w3.org/2000/svg" xml:space="preserve" width="100%" height="100%" version="1.1" style="shape-rendering:geometricPrecision; text-rendering:geometricPrecision; image-rendering:optimizeQuality; fill-rule:evenodd; clip-rule:evenodd"
viewBox="0 0 500 500"
 xmlns:xlink="http://www.w3.org/1999/xlink">
 <defs>
  <style type="text/css">
   <![CDATA[
    .str2 {stroke:#303030;stroke-width:5}
    .str1 {stroke:#303030;stroke-width:10}
    .str0 {stroke:#303030;stroke-width:20}
    .fil0 {fill:none}
    .fil3 {fill:#F2F2F2}
    .fil2 {fill:url(#id0)}
    .fil1 {fill:url(#id1)}
   ]]>
  </style>
  <linearGradient id="id0" gradientUnits="userSpaceOnUse" x1="250" y1="126.471" x2="250" y2="312.406">
   <stop offset="0" style="stop-color:#B1B1B1"/>
   <stop offset="1" style="stop-color:#F2F2F2"/>
  </linearGradient>
  <linearGradient id="id1" gradientUnits="userSpaceOnUse" x1="250" y1="381.97" x2="250" y2="272.442">
   <stop offset="0" style="stop-color:#2EACFF"/>
   <stop offset="1" style="stop-color:#008EED"/>
  </linearGradient>
 </defs>
 <g id="Layer_x0020_1">
  <metadata id="CorelCorpID_0Corel-Layer"/>
  <rect class="fil0 str0" x="188" y="75" width="123.528" height="61.7681" rx="10" ry="10"/>
  <path class="fil1 str1" d="M466 229l0 165c0,17 -14,31 -31,31l-370 0c-17,0 -31,-14 -31,-31l0 -165c144,83 288,83 432,0z"/>
  <path class="fil2 str1" d="M65 126l370 0c17,0 31,14 31,31l0 72c-144,83 -288,83 -432,0l0 -72c0,-17 14,-31 31,-31z"/>
  <rect class="fil3 str2" x="229" y="250" width="41.1808" height="72.0582" rx="10" ry="10"/>
 </g>
</svg>
