<?xml version="1.0" encoding="UTF-8"?>
<!DOCTYPE svg PUBLIC "-//W3C//DTD SVG 1.1//EN" "http://www.w3.org/Graphics/SVG/1.1/DTD/svg11.dtd">
<!-- Creator: CorelDRAW X6 -->
<svg xmlns="http://www.w3.org/2000/svg" xml:space="preserve" width="100%" height="100%" version="1.1" style="shape-rendering:geometricPrecision; text-rendering:geometricPrecision; image-rendering:optimizeQuality; fill-rule:evenodd; clip-rule:evenodd"
viewBox="0 0 500 500"
 xmlns:xlink="http://www.w3.org/1999/xlink">
 <defs>
  <style type="text/css">
   <![CDATA[
    .str2 {stroke:#303030;stroke-width:5}
    .str0 {stroke:#303030;stroke-width:10}
    .str1 {stroke:#303030;stroke-width:10;stroke-linejoin:round}
    .fil3 {fill:#008EED}
    .fil2 {fill:#303030}
    .fil1 {fill:#D8D8D8}
    .fil0 {fill:url(#id0)}
   ]]>
  </style>
  <linearGradient id="id0" gradientUnits="userSpaceOnUse" x1="200.58" y1="298.356" x2="406.207" y2="92.731">
   <stop offset="0" style="stop-color:#17A2FF"/>
   <stop offset="1" style="stop-color:#008EED"/>
  </linearGradient>
 </defs>
 <g id="Layer_x0020_1">
  <metadata id="CorelCorpID_0Corel-Layer"/>
  <path class="fil0 str0" d="M138 303c88,-97 116,-184 209,-252 27,-19 64,-21 94,7 28,30 26,67 7,93 -68,94 -155,122 -252,210l-58 -58z"/>
  <path class="fil1 str1" d="M138 303l58 58c-10,11 -21,22 -32,32 -2,2 -6,2 -8,0l-51 -50c-2,-3 -2,-6 0,-9 11,-10 22,-20 33,-31z"/>
  <path class="fil2" d="M112 350c-18,-5 -35,-4 -54,18 -30,36 -9,95 -9,95 20,-34 68,-14 93,-38 10,-10 15,-25 7,-39l-37 -36z"/>
  <path class="fil3 str2" d="M75 383c10,39 36,32 26,57 0,2 -2,2 -3,2 -28,1 -40,12 -46,20 -1,1 -2,2 -4,1 -1,0 -2,-1 -2,-2 -9,-33 -17,-56 11,-96 1,-2 2,-2 4,-1 6,3 11,9 14,19z"/>
 </g>
</svg>
