<?xml version="1.0" encoding="UTF-8"?>
<!DOCTYPE svg PUBLIC "-//W3C//DTD SVG 1.1//EN" "http://www.w3.org/Graphics/SVG/1.1/DTD/svg11.dtd">
<!-- Creator: CorelDRAW X6 -->
<svg xmlns="http://www.w3.org/2000/svg" xml:space="preserve" width="100%" height="100%" version="1.1" style="shape-rendering:geometricPrecision; text-rendering:geometricPrecision; image-rendering:optimizeQuality; fill-rule:evenodd; clip-rule:evenodd"
viewBox="0 0 500 500"
 xmlns:xlink="http://www.w3.org/1999/xlink">
 <defs>
  <style type="text/css">
   <![CDATA[
    .str0 {stroke:#303030;stroke-width:10}
    .fil4 {fill:none}
    .fil0 {fill:#303030}
    .fil2 {fill:#E5E5E5}
    .fil5 {fill:#F2F2F2}
    .fil1 {fill:url(#id0)}
    .fil3 {fill:url(#id1)}
   ]]>
  </style>
  <linearGradient id="id0" gradientUnits="userSpaceOnUse" x1="249.999" y1="174.998" x2="249.999" y2="79.998">
   <stop offset="0" style="stop-color:#008BFF"/>
   <stop offset="1" style="stop-color:#00AAFF"/>
  </linearGradient>
  <linearGradient id="id1" gradientUnits="userSpaceOnUse" x1="250" y1="174.998" x2="250" y2="450">
   <stop offset="0" style="stop-color:#D8D8D8"/>
   <stop offset="1" style="stop-color:#F2F2F2"/>
  </linearGradient>
 </defs>
 <g id="Layer_x0020_1">
  <metadata id="CorelCorpID_0Corel-Layer"/>
  <rect class="fil0" x="50" y="60" width="400" height="410" rx="30" ry="30"/>
  <path class="fil1" d="M430 175l-360 0 0 -75c0,-11 9,-20 20,-20l320 0c11,0 20,9 20,20l0 75z"/>
  <circle class="fil2" cx="380" cy="125" r="25"/>
  <path class="fil3" d="M70 175l360 0 0 255c0,11 -9,20 -20,20l-320 0c-11,0 -20,-9 -20,-20l0 -255z"/>
  <line class="fil4 str0" x1="70" y1="175" x2="430" y2= "175" />
  <path class="fil0" d="M380 30c5,0 10,4 10,10l0 85c0,6 -5,10 -10,10 -5,0 -10,-4 -10,-10l0 -85c0,-6 5,-10 10,-10z"/>
  <path class="fil5" d="M380 40c3,0 5,2 5,5l0 75c0,3 -2,5 -5,5 -3,0 -5,-2 -5,-5l0 -75c0,-3 2,-5 5,-5z"/>
  <circle class="fil2" cx="130" cy="125" r="25"/>
  <path class="fil0" d="M130 30c5,0 10,4 10,10l0 85c0,6 -5,10 -10,10 -5,0 -10,-4 -10,-10l0 -85c0,-6 5,-10 10,-10z"/>
  <path class="fil5" d="M130 40c3,0 5,2 5,5l0 75c0,3 -2,5 -5,5 -3,0 -5,-2 -5,-5l0 -75c0,-3 2,-5 5,-5z"/>
 </g>
</svg>
