<?xml version="1.0" encoding="UTF-8"?>
<!DOCTYPE svg PUBLIC "-//W3C//DTD SVG 1.1//EN" "http://www.w3.org/Graphics/SVG/1.1/DTD/svg11.dtd">
<!-- Creator: CorelDRAW X6 -->
<svg xmlns="http://www.w3.org/2000/svg" xml:space="preserve" width="100%" height="100%" version="1.1" style="shape-rendering:geometricPrecision; text-rendering:geometricPrecision; image-rendering:optimizeQuality; fill-rule:evenodd; clip-rule:evenodd"
viewBox="0 0 500 500"
 xmlns:xlink="http://www.w3.org/1999/xlink">
 <defs>
  <style type="text/css">
   <![CDATA[
    .str2 {stroke:#303030;stroke-width:2}
    .str1 {stroke:#585858;stroke-width:2.5}
    .str0 {stroke:#303030;stroke-width:10;stroke-linejoin:round}
    .fil4 {fill:#17A2FF}
    .fil0 {fill:#303030}
    .fil3 {fill:#FF3300}
    .fil2 {fill:url(#id0)}
    .fil1 {fill:url(#id1)}
   ]]>
  </style>
  <linearGradient id="id0" gradientUnits="userSpaceOnUse" x1="236.508" y1="246.931" x2="236.508" y2="339.031">
   <stop offset="0" style="stop-color:#CBCBCB"/>
   <stop offset="1" style="stop-color:#F2F2F2"/>
  </linearGradient>
  <linearGradient id="id1" gradientUnits="userSpaceOnUse" x1="232.501" y1="217.902" x2="232.501" y2="293.502">
   <stop offset="0" style="stop-color:#CBCBCB"/>
   <stop offset="1" style="stop-color:#F2F2F2"/>
  </linearGradient>
 </defs>
 <g id="Layer_x0020_1">
  <metadata id="CorelCorpID_0Corel-Layer"/>
  <path class="fil0" d="M110 319l245 0 0 50c0,6 -4,10 -10,10l-225 0c-5,0 -10,-4 -10,-10l0 -50z"/>
  <path class="fil0" d="M410 181l-30 0 0 100 30 0 30 20 35 0c3,0 5,-3 5,-5l0 -130c0,-3 -2,-5 -5,-5l-35 0 0 0 -30 20z"/>
  <rect class="fil1 str0" x="85" y="151" width="295" height="210" rx="26" ry="25"/>
  <path class="fil2 str1" d="M120 361l197 0c1,0 2,-1 2,-2l0 -98c0,-11 -9,-20 -20,-20l-159 0c-12,0 -21,9 -21,21l0 97c0,1 0,2 1,2z"/>
  <circle class="fil3 str2" cx="335" cy="201" r="15"/>
  <path class="fil0" d="M30 121l13 0 0 0 0 0 17 10 148 0c28,0 51,23 51,51 0,5 -4,9 -9,9l-190 0 -17 10 0 0 -13 0c-5,0 -10,-5 -10,-10l0 -60c0,-6 5,-10 10,-10z"/>
  <rect class="fil4" x="134" y="283" width="170" height="35.0009" rx="16" ry="5"/>
 </g>
</svg>
