<?xml version="1.0" encoding="UTF-8"?>
<!DOCTYPE svg PUBLIC "-//W3C//DTD SVG 1.1//EN" "http://www.w3.org/Graphics/SVG/1.1/DTD/svg11.dtd">
<!-- Creator: CorelDRAW X6 -->
<svg xmlns="http://www.w3.org/2000/svg" xml:space="preserve" width="100%" height="100%" version="1.1" style="shape-rendering:geometricPrecision; text-rendering:geometricPrecision; image-rendering:optimizeQuality; fill-rule:evenodd; clip-rule:evenodd"
viewBox="0 0 500 500"
 xmlns:xlink="http://www.w3.org/1999/xlink">
 <defs>
  <style type="text/css">
   <![CDATA[
    .str6 {stroke:#303030;stroke-width:5}
    .str1 {stroke:#303030;stroke-width:10}
    .str2 {stroke:#505050;stroke-width:20}
    .str3 {stroke:#EBEBEB;stroke-width:7.5;stroke-dasharray:15.000000 7.500000}
    .str4 {stroke:#EBEBEB;stroke-width:7.5;stroke-dasharray:75.000000 7.500000}
    .str5 {stroke:#EBEBEB;stroke-width:7.5;stroke-dasharray:37.500000 22.500000 7.500000 7.500000 7.500000 22.500000}
    .fil1 {fill:none}
    .fil3 {fill:#A8D45D}
    .fil2 {fill:url(#id0)}
   ]]>
  </style>
  <linearGradient id="id0" gradientUnits="userSpaceOnUse" x1="364.003" y1="364.003" x2="136.007" y2="136.007">
   <stop offset="0" style="stop-color:#2EACFF"/>
   <stop offset="1" style="stop-color:#0078C8"/>
  </linearGradient>
 </defs>
 <g id="Layer_x0020_1">
  <metadata id="CorelCorpID_0Corel-Layer"/>
  <path class="fil1 str1" d="M401 122l70 0m-70 50l70 0m-70 50l70 0m-70 50l70 0m-70 50l70 0m-70 50l70 0m-371 5l-70 0m70 -50l-70 0m70 -50l-70 0m70 -50l-70 0m70 -50l-70 0m70 -50l-70 0m93 -27l0 -70m50 70l0 -70m50 70l0 -70m50 70l0 -70m50 70l0 -70m50 70l0 -70m5 369l0 70m-50 -70l0 70m-50 -70l0 70m-50 -70l0 70m-50 -70l0 70m-50 -70l0 70"/>
  <path class="fil1 str2" d="M401 127l30 0m-30 50l30 0m-30 50l30 0m-30 50l30 0m-30 50l30 0m-30 50l30 0m-303 -277l0 -30m50 30l0 -30m50 30l0 -30m50 30l0 -30m50 30l0 -30m50 30l0 -30m-278 302l-30 0m30 -50l-30 0m30 -50l-30 0m30 -50l-30 0m30 -50l-30 0m30 -50l-30 0m303 277l0 30m-50 -30l0 30m-50 -30l0 30m-50 -30l0 30m-50 -30l0 30m-50 -30l0 30"/>
  <rect class="fil2 str1" x="100" y="100" width="300" height="300" rx="20" ry="20"/>
  <line class="fil1 str3" x1="142" y1="290" x2="265" y2= "290" />
  <line class="fil1 str4" x1="300" y1="315" x2="142" y2= "315" />
  <line class="fil1 str5" x1="142" y1="340" x2="320" y2= "340" />
  <circle class="fil3 str6" cx="163" cy="165" r="16"/>
 </g>
</svg>
