<?xml version="1.0" encoding="UTF-8"?>
<!DOCTYPE svg PUBLIC "-//W3C//DTD SVG 1.1//EN" "http://www.w3.org/Graphics/SVG/1.1/DTD/svg11.dtd">
<!-- Creator: CorelDRAW X6 -->
<svg xmlns="http://www.w3.org/2000/svg" xml:space="preserve" width="100%" height="100%" version="1.1" style="shape-rendering:geometricPrecision; text-rendering:geometricPrecision; image-rendering:optimizeQuality; fill-rule:evenodd; clip-rule:evenodd"
viewBox="0 0 500 500"
 xmlns:xlink="http://www.w3.org/1999/xlink">
 <defs>
  <style type="text/css">
   <![CDATA[

    .str1 {stroke:#303030;stroke-width:10}
    .str4 {stroke:#303030;stroke-width:10;stroke-linecap:round}
    .str5 {stroke:#FF3300;stroke-width:10;stroke-linecap:round}
    .str3 {stroke:#303030;stroke-width:15;stroke-linecap:round}
    .str2 {stroke:#303030;stroke-width:21.143}
    .fil4 {fill:none}
    .fil5 {fill:#303030}
   .fil2 {fill:url(#id0)}
    .fil1 {fill:url(#id1)}
    .fil3 {fill:url(#id2)}
   ]]>
  </style>
  <linearGradient id="id0" gradientUnits="userSpaceOnUse" x1="242.922" y1="68.57" x2="242.922" y2="432.038">
   <stop offset="0" style="stop-color:#F2F2F2"/>
   <stop offset="1" style="stop-color:#D8D8D8"/>
  </linearGradient>
  <linearGradient id="id1" gradientUnits="userSpaceOnUse" x1="242.922" y1="30.308" x2="242.922" y2="470.3">
   <stop offset="0" style="stop-color:#0099FF"/>
   <stop offset="1" style="stop-color:#0083DB"/>
  </linearGradient>
  <linearGradient id="id2" gradientUnits="userSpaceOnUse" x1="242.926" y1="98.406" x2="242.926" y2="402.205">
   <stop offset="0" style="stop-color:#D8D8D8"/>
   <stop offset="1" style="stop-color:#F2F2F2"/>
  </linearGradient>
 </defs>
 <g id="Layer_x0020_1">
  <metadata id="CorelCorpID_0Corel-Layer"/>
  <path id="mainback" class="fil1 str1" d="M243 30c121,0 220,99 220,220 0,122 -99,220 -220,220 -122,0 -220,-98 -220,-220 0,-121 98,-220 220,-220zm0 39c100,0 182,81 182,181 0,101 -82,182 -182,182 -100,0 -182,-81 -182,-182 0,-100 82,-181 182,-181z"/>
  <path id="dial1" class="fil2" d="M243 69c100,0 182,81 182,181 0,101 -82,182 -182,182 -100,0 -182,-81 -182,-182 0,-100 82,-181 182,-181zm0 28c84,0 153,69 153,153 0,85 -69,153 -153,153 -85,0 -153,-68 -153,-153 0,-84 68,-153 153,-153z"/>
  <circle id="dial2" class="fil3" cx="243" cy="250" r="155"/>
  <path id="steps" class="fil4 str2" d="M58 250l31 0m339 0l-31 0m-154 185l0 -30m0 -340l0 31"/>
  <line id="hour" class="fil4 str3" x1="243" y1="138" x2="243" y2= "275" />
  <line id="minute" class="fil4 str4" x1="333" y1="159" x2="217" y2= "276" />
  <line id="second" class="fil4 str5" x1="329" y1="336" x2="217" y2= "225" />
  <circle id="middle" class="fil5" cx="243" cy="250" r="19"/>
 </g>
</svg>
