<?xml version="1.0" encoding="UTF-8"?>
<!DOCTYPE svg PUBLIC "-//W3C//DTD SVG 1.1//EN" "http://www.w3.org/Graphics/SVG/1.1/DTD/svg11.dtd">
<!-- Creator: CorelDRAW X6 -->
<svg xmlns="http://www.w3.org/2000/svg" xml:space="preserve" width="100%" height="100%" version="1.1" style="shape-rendering:geometricPrecision; text-rendering:geometricPrecision; image-rendering:optimizeQuality; fill-rule:evenodd; clip-rule:evenodd"
viewBox="0 0 500 500"
 xmlns:xlink="http://www.w3.org/1999/xlink">
 <defs>
  <style type="text/css">
   <![CDATA[
    .str1 {stroke:#303030;stroke-width:10}
    .fil1 {fill:url(#id0)}
    .fil2 {fill:url(#id1)}
   ]]>
  </style>
  <linearGradient id="id0" gradientUnits="userSpaceOnUse" x1="250.003" y1="25.005" x2="250.003" y2="475.005">
   <stop offset="0" style="stop-color:#FF4617"/>
   <stop offset="1" style="stop-color:#C82800"/>
  </linearGradient>
  <linearGradient id="id1" gradientUnits="userSpaceOnUse" x1="250.005" y1="77.506" x2="250.005" y2="422.504">
   <stop offset="0" style="stop-color:#CBCBCB"/>
   <stop offset="1" style="stop-color:#F2F2F2"/>
  </linearGradient>
 </defs>
 <g id="Layer_x0020_1">
  <metadata id="CorelCorpID_0Corel-Layer"/>
  <circle class="fil1 str1" cx="250" cy="250" r="225"/>
  <path class="fil2 str1" d="M250 343c22,0 40,17 40,40 0,22 -18,40 -40,40 -22,0 -40,-18 -40,-40 0,-23 18,-40 40,-40zm6 -27l-12 0c-3,-43 -19,-77 -30,-119 -9,-35 -14,-59 -14,-74 0,-14 5,-25 14,-33 9,-8 21,-12 36,-12 14,0 26,4 36,12 9,8 14,19 14,32 0,13 -5,38 -15,75 -13,45 -24,71 -29,119z"/>
 </g>
</svg>
