<?xml version="1.0" encoding="UTF-8"?>
<!DOCTYPE svg PUBLIC "-//W3C//DTD SVG 1.1//EN" "http://www.w3.org/Graphics/SVG/1.1/DTD/svg11.dtd">
<!-- Creator: CorelDRAW X6 -->
<svg xmlns="http://www.w3.org/2000/svg" xml:space="preserve" width="100%" height="100%" version="1.1" style="shape-rendering:geometricPrecision; text-rendering:geometricPrecision; image-rendering:optimizeQuality; fill-rule:evenodd; clip-rule:evenodd"
viewBox="0 0 500 500"
 xmlns:xlink="http://www.w3.org/1999/xlink">
 <defs>
  <style type="text/css">
   <![CDATA[
    .str0 {stroke:#303030;stroke-width:10}
    .fil1 {fill:#5DBEFF;fill-rule:nonzero}
    .fil0 {fill:url(#id0)}
   ]]>
  </style>
  <linearGradient id="id0" gradientUnits="userSpaceOnUse" x1="92.122" y1="250" x2="407.878" y2="250">
   <stop offset="0" style="stop-color:#0081D8"/>
   <stop offset="0.478431" style="stop-color:#27A9FF"/>
   <stop offset="1" style="stop-color:#0081D8"/>
  </linearGradient>
 </defs>
 <g id="Layer_x0020_1">
  <metadata id="CorelCorpID_0Corel-Layer"/>
  <path class="fil0 str0" d="M236 44c-52,107 -136,172 -149,252 -12,72 45,174 163,174 118,0 175,-102 163,-174 -13,-80 -97,-145 -149,-252 -4,-9 -9,-14 -14,-14 -5,0 -10,5 -14,14z"/>
  <path class="fil1" d="M387 345c-5,21 -15,41 -30,56 -14,15 -33,26 -54,32 -7,2 -13,1 -19,-3 -7,-5 -9,-11 -9,-20 -1,-10 6,-19 16,-22 12,-4 24,-10 32,-20 9,-9 15,-20 19,-33 2,-12 12,-18 23,-18 8,0 14,3 18,9 5,5 6,12 4,19z"/>
 </g>
</svg>
