<?xml version="1.0" encoding="UTF-8"?>
<!DOCTYPE svg PUBLIC "-//W3C//DTD SVG 1.1//EN" "http://www.w3.org/Graphics/SVG/1.1/DTD/svg11.dtd">
<!-- Creator: CorelDRAW X6 -->
<svg xmlns="http://www.w3.org/2000/svg" xml:space="preserve" width="100%" height="100%" version="1.1" style="shape-rendering:geometricPrecision; text-rendering:geometricPrecision; image-rendering:optimizeQuality; fill-rule:evenodd; clip-rule:evenodd"
viewBox="0 0 500 522"
 xmlns:xlink="http://www.w3.org/1999/xlink">
 <defs>
  <style type="text/css">
   <![CDATA[
    .str1 {stroke:#303030;stroke-width:10}
    .str2 {stroke:#434242;stroke-width:14.953;stroke-linecap:round}
    .fil6 {fill:none}
    .fil5 {fill:#434242}
    .fil1 {fill:#C5C5C5}
    .fil2 {fill:url(#id0)}
    .fil3 {fill:url(#id1)}
    .fil4 {fill:url(#id2)}
   ]]>
  </style>
  <linearGradient id="id0" gradientUnits="userSpaceOnUse" x1="250.004" y1="30.7" x2="250.004" y2="469.312">
   <stop offset="0" style="stop-color:#2EACFF"/>
   <stop offset="1" style="stop-color:#008EED"/>
  </linearGradient>
  <linearGradient id="id1" gradientUnits="userSpaceOnUse" x1="250.003" y1="39.073" x2="250.003" y2="161.884">
   <stop offset="0" style="stop-color:#D8D8D8"/>
   <stop offset="1" style="stop-color:#F2F2F2"/>
  </linearGradient>
  <linearGradient id="id2" gradientUnits="userSpaceOnUse" xlink:href="#id1" x1="250.002" y1="262.687" x2="250.002" y2="456.123">
  </linearGradient>
 </defs>
 <g id="Layer_x0020_1">
  <metadata id="CorelCorpID_0Corel-Layer"/>
  <rect class="fil1" x="100" y="520" width="209.999" height="2"/>
  <path class="fil2 str1" d="M56 31l363 0 50 50 0 363c0,14 -11,25 -25,25l-388 0c-14,0 -25,-11 -25,-25l0 -388c0,-14 11,-25 25,-25z"/>
  <path class="fil3 str1" d="M110 31l280 0 0 124c0,9 -7,15 -15,15l-250 0c-8,0 -15,-6 -15,-15l0 -124z"/>
  <rect class="fil4 str1" x="91" y="249" width="319" height="220"/>
  <path class="fil5" d="M290 29l70 0 0 101c0,3 -3,5 -5,5l-60 0c-3,0 -5,-2 -5,-5l0 -101z"/>
  <path class="fil6 str2" d="M370 294l-240 0m240 40l-240 0m240 40l-240 0m240 40l-240 0"/>
 </g>
</svg>
