<?xml version="1.0" encoding="UTF-8"?>
<!DOCTYPE svg PUBLIC "-//W3C//DTD SVG 1.1//EN" "http://www.w3.org/Graphics/SVG/1.1/DTD/svg11.dtd">
<!-- Creator: CorelDRAW X6 -->
<svg xmlns="http://www.w3.org/2000/svg" xml:space="preserve" width="100%" height="100%" version="1.1" style="shape-rendering:geometricPrecision; text-rendering:geometricPrecision; image-rendering:optimizeQuality; fill-rule:evenodd; clip-rule:evenodd"
viewBox="0 0 500 500"
 xmlns:xlink="http://www.w3.org/1999/xlink">
 <defs>
  <style type="text/css">
   <![CDATA[
    .str2 {stroke:#434242;stroke-width:7.5}
    .str1 {stroke:#303030;stroke-width:10}
    .fil2 {fill:url(#id0)}
    .fil1 {fill:url(#id1)}
   ]]>
  </style>
  <linearGradient id="id0" gradientUnits="userSpaceOnUse" x1="261.374" y1="270.503" x2="261.374" y2="395.441">
   <stop offset="0" style="stop-color:#2EACFF"/>
   <stop offset="1" style="stop-color:#008EED"/>
  </linearGradient>
  <linearGradient id="id1" gradientUnits="userSpaceOnUse" x1="239.908" y1="298.321" x2="239.908" y2="201.689">
   <stop offset="0" style="stop-color:#B1B1B1"/>
   <stop offset="1" style="stop-color:#F2F2F2"/>
  </linearGradient>
 </defs>
 <g id="Layer_x0020_1">
  <metadata id="CorelCorpID_0Corel-Layer"/>
  <path class="fil1 str1" d="M51 411l360 0c10,0 18,-9 19,-19l20 -254c1,-11 -9,-20 -20,-20l-21 0c-5,0 -11,-5 -10,-10l2 -9c1,-6 -4,-10 -10,-10l-97 0c-6,0 -9,4 -10,10l-2 9c-1,5 -5,10 -10,10l-203 0c-11,0 -19,9 -19,20l-20 254c-1,10 10,19 21,19z"/>
  <path class="fil2 str2" d="M50 411l366 0c10,0 15,-9 19,-19l34 -88c4,-10 -9,-20 -19,-20l-156 0c-30,0 -30,-29 -59,-29l-112 0c-11,0 -17,9 -20,19l-34 118c-3,10 -5,19 -19,19z"/>
 </g>
</svg>
