<?xml version="1.0" encoding="UTF-8"?>
<!DOCTYPE svg PUBLIC "-//W3C//DTD SVG 1.1//EN" "http://www.w3.org/Graphics/SVG/1.1/DTD/svg11.dtd">
<!-- Creator: CorelDRAW X6 -->
<svg xmlns="http://www.w3.org/2000/svg" xml:space="preserve" width="100%" height="100%" version="1.1" style="shape-rendering:geometricPrecision; text-rendering:geometricPrecision; image-rendering:optimizeQuality; fill-rule:evenodd; clip-rule:evenodd"
viewBox="0 0 500 500"
 xmlns:xlink="http://www.w3.org/1999/xlink">
 <defs>
  <style type="text/css">
   <![CDATA[
    .str0 {stroke:#303030;stroke-width:10}
    .fil2 {fill:none}
    .fil1 {fill:#0099FF}
    .fil3 {fill:#303030}
    .fil0 {fill:#E5E5E5}
   ]]>
  </style>
 </defs>
 <g id="Layer_x0020_1">
  <metadata id="CorelCorpID_0Corel-Layer"/>
  <path class="fil0" d="M385 450c0,-53 -9,-133 -96,-160 -32,-7 -32,-73 0,-80 87,-27 96,-107 96,-160l-270 0c0,53 9,133 96,160 33,7 34,73 0,80 -87,27 -96,107 -96,160l270 0z"/>
  <path class="fil1" d="M265 250c0,-18 8,-37 24,-40 51,-16 75,-50 87,-86l-252 0c12,36 36,70 87,86 17,3 25,22 25,40l29 0zm120 200c0,-13 -1,-27 -3,-42 -92,-41 -180,-41 -264,0 -2,15 -3,29 -3,42l270 0z"/>
  <path class="fil2 str0" d="M385 450c0,-53 -9,-133 -96,-160 -32,-7 -32,-73 0,-80 87,-27 96,-107 96,-160l-270 0c0,53 9,133 96,160 33,7 34,73 0,80 -87,27 -96,107 -96,160l270 0z"/>
  <path class="fil3" d="M115 30l270 0c8,0 15,7 15,15l0 20c0,3 -2,5 -5,5l-290 0c-3,0 -5,-2 -5,-5l0 -20c0,-8 7,-15 15,-15z"/>
  <path class="fil3" d="M115 470l270 0c8,0 15,-7 15,-15l0 -20c0,-3 -2,-5 -5,-5l-290 0c-3,0 -5,2 -5,5l0 20c0,8 7,15 15,15z"/>
 </g>
</svg>
