<?xml version="1.0" encoding="UTF-8"?>
<!DOCTYPE svg PUBLIC "-//W3C//DTD SVG 1.1//EN" "http://www.w3.org/Graphics/SVG/1.1/DTD/svg11.dtd">
<!-- Creator: CorelDRAW X6 -->
<svg xmlns="http://www.w3.org/2000/svg" xml:space="preserve" width="100%" height="100%" version="1.1" style="shape-rendering:geometricPrecision; text-rendering:geometricPrecision; image-rendering:optimizeQuality; fill-rule:evenodd; clip-rule:evenodd"
viewBox="0 0 500 500"
 xmlns:xlink="http://www.w3.org/1999/xlink">
 <defs>
  <style type="text/css">
   <![CDATA[
    .str1 {stroke:#303030;stroke-width:10}
    .str2 {stroke:#303030;stroke-width:25}
    .fil2 {fill:none}
    .fil3 {fill:#F2F2F2}
    .fil1 {fill:url(#id0)}
   ]]>
  </style>
  <linearGradient id="id0" gradientUnits="userSpaceOnUse" x1="250.004" y1="195.002" x2="250.004" y2="395.002">
   <stop offset="0" style="stop-color:#0083DB"/>
   <stop offset="1" style="stop-color:#46B5FF"/>
  </linearGradient>
 </defs>
 <g id="Layer_x0020_1">
  <metadata id="CorelCorpID_0Corel-Layer"/>
  <rect class="fil1 str1" x="30" y="195" width="440" height="200" rx="20" ry="20"/>
  <path class="fil2 str2" d="M85 195c0,-27 22,-49 50,-49l66 0c27,0 49,-23 49,-50"/>
  <path class="fil3" d="M70 366l36 0 0 -36 -36 0 0 36zm0 -54l36 0 0 -36 -36 0 0 36zm0 -54l36 0 0 -36 -36 0 0 36zm54 108l252 0 0 -36 -252 0 0 36zm0 -54l36 0 0 -36 -36 0 0 36zm0 -54l36 0 0 -36 -36 0 0 36zm54 54l36 0 0 -36 -36 0 0 36zm0 -54l36 0 0 -36 -36 0 0 36zm54 54l36 0 0 -36 -36 0 0 36zm0 -54l36 0 0 -36 -36 0 0 36zm54 54l36 0 0 -36 -36 0 0 36zm0 -54l36 0 0 -36 -36 0 0 36zm54 54l36 0 0 -36 -36 0 0 36zm0 -54l36 0 0 -36 -36 0 0 36zm54 54l36 0 0 -36 -36 0 0 36zm0 -54l36 0 0 -36 -36 0 0 36zm0 108l36 0 0 -36 -36 0 0 36z"/>
 </g>
</svg>
