<?xml version="1.0" encoding="UTF-8"?>
<!DOCTYPE svg PUBLIC "-//W3C//DTD SVG 1.1//EN" "http://www.w3.org/Graphics/SVG/1.1/DTD/svg11.dtd">
<!-- Creator: CorelDRAW X6 -->
<svg xmlns="http://www.w3.org/2000/svg" xml:space="preserve" width="100%" height="100%" version="1.1" style="shape-rendering:geometricPrecision; text-rendering:geometricPrecision; image-rendering:optimizeQuality; fill-rule:evenodd; clip-rule:evenodd"
viewBox="0 0 500 500"
 xmlns:xlink="http://www.w3.org/1999/xlink">
 <defs>
  <style type="text/css">
   <![CDATA[
    .str3 {stroke:#303030;stroke-width:5}
    .str2 {stroke:#303030;stroke-width:10;stroke-linecap:round}
    .str1 {stroke:#FFAA00;stroke-width:10}
    .fil2 {fill:none}
    .fil3 {fill:#17A2FF}
    .fil1 {fill:url(#id0)}
   ]]>
  </style>
  <radialGradient id="id0" gradientUnits="objectBoundingBox" cx="73.0002%" cy="37.9998%" r="40.0001%" fx="73.0002%" fy="37.9998%">
   <stop offset="0" style="stop-color:#FFF7E8"/>
   <stop offset="1" style="stop-color:#FFE0A2"/>
  </radialGradient>
 </defs>
 <g id="Layer_x0020_1">
  <metadata id="CorelCorpID_0Corel-Layer"/>
  <path class="fil1 str1" d="M250 33c75,0 136,60 136,135 0,109 -72,69 -72,191 0,9 -7,16 -16,16l-96 0c-9,0 -16,-7 -16,-16 0,-122 -71,-82 -71,-191 0,-75 60,-135 135,-135z"/>
  <path class="fil2 str2" d="M271 375l0 -64c0,-6 -5,-10 -10,-10l-22 0c-5,0 -10,4 -10,10l0 64m10 -74l-53 -138m75 138l53 -138m0 0c-21,14 -21,-15 -43,0 -21,14 -21,-15 -42,0 -22,14 -22,-15 -43,0"/>
  <path class="fil3 str3" d="M207 375l86 0c2,0 5,2 5,5l0 6c0,3 -2,5 -5,5l-85 10c-1,0 -3,0 -4,-1 -1,-2 -2,-3 -2,-4l0 -16c0,-3 3,-5 5,-5zm86 38l-85 9c-1,0 -3,0 -4,-1 -1,-1 -2,-3 -2,-4l0 -5c0,-3 2,-5 5,-6l85 -9c1,0 3,0 4,1 1,1 2,3 2,4l0 5c0,3 -2,5 -5,6zm0 21l-85 9c-1,0 -3,0 -4,-1 -1,-1 -2,-2 -2,-4l0 -5c0,-3 2,-5 5,-6l85 -9c1,0 3,0 4,1 1,1 2,3 2,4l0 6c0,2 -2,5 -5,5zm-16 13l0 7c0,6 -5,9 -11,11 -11,3 -21,3 -32,0 -6,-2 -11,-5 -11,-11l0 -2c0,-3 2,-5 5,-6l43 -4c1,0 3,0 4,1 1,1 2,2 2,4z"/>
 </g>
</svg>
