<?xml version="1.0" encoding="UTF-8"?>
<!DOCTYPE svg PUBLIC "-//W3C//DTD SVG 1.1//EN" "http://www.w3.org/Graphics/SVG/1.1/DTD/svg11.dtd">
<!-- Creator: CorelDRAW X6 -->
<svg xmlns="http://www.w3.org/2000/svg" xml:space="preserve" width="100%" height="100%" version="1.1" style="shape-rendering:geometricPrecision; text-rendering:geometricPrecision; image-rendering:optimizeQuality; fill-rule:evenodd; clip-rule:evenodd"
viewBox="0 0 500 500"
 xmlns:xlink="http://www.w3.org/1999/xlink">
 <defs>
  <style type="text/css">
   <![CDATA[
    .str0 {stroke:#303030;stroke-width:5}
    .str1 {stroke:#303030;stroke-width:10}
    .fil3 {fill:none}
    .fil2 {fill:#0099FF}
    .fil0 {fill:#303030}
    .fil4 {fill:url(#id0)}
    .fil1 {fill:url(#id1)}
   ]]>
  </style>
  <linearGradient id="id0" gradientUnits="userSpaceOnUse" x1="110.92" y1="294.888" x2="110.92" y2="163">
   <stop offset="0" style="stop-color:#303030"/>
   <stop offset="1" style="stop-color:#7D7D7D"/>
  </linearGradient>
  <linearGradient id="id1" gradientUnits="userSpaceOnUse" x1="260.367" y1="136.265" x2="260.367" y2="321.628">
   <stop offset="0" style="stop-color:#C5C5C5"/>
   <stop offset="0.478431" style="stop-color:#EDEDED"/>
   <stop offset="1" style="stop-color:#C5C5C5"/>
  </linearGradient>
 </defs>
 <g id="Layer_x0020_1">
  <metadata id="CorelCorpID_0Corel-Layer"/>
  <circle class="fil0" cx="380" cy="229" r="89"/>
  <path class="fil1" d="M278 140l-188 0c-7,0 -13,6 -13,13l0 152c0,7 6,13 13,13l188 0 0 0c64,0 115,38 153,82 6,7 13,1 13,-6l0 -330c0,-7 -7,-13 -13,-6 -38,44 -89,82 -153,82z"/>
  <path class="fil2 str0" d="M300 320c14,1 26,5 39,10l0 -202c-13,5 -25,8 -39,10l0 182z"/>
  <path class="fil3 str1" d="M278 140l-188 0c-7,0 -13,6 -13,13l0 152c0,7 6,13 13,13l188 0 0 0c64,0 115,38 153,82 6,7 13,1 13,-6l0 -330c0,-7 -7,-13 -13,-6 -38,44 -89,82 -153,82z"/>
  <path class="fil4 str1" d="M74 140l31 0c8,0 15,7 15,15l0 23c0,35 27,51 59,51 6,0 12,6 12,13l0 76 -86 0 -15 0 -16 0c-8,0 -15,-7 -15,-15l0 -26c-17,-11 -29,-30 -29,-51 0,-22 12,-41 29,-51l0 -20c0,-8 7,-15 15,-15z"/>
  <path class="fil0" d="M191 318l-70 0 39 115c2,7 6,12 19,12l51 0c6,0 12,-5 12,-12l0 -13c0,-26 -38,-26 -51,-102z"/>
 </g>
</svg>
