<?xml version="1.0" encoding="UTF-8"?>
<!DOCTYPE svg PUBLIC "-//W3C//DTD SVG 1.1//EN" "http://www.w3.org/Graphics/SVG/1.1/DTD/svg11.dtd">
<!-- Creator: CorelDRAW X6 -->
<svg xmlns="http://www.w3.org/2000/svg" xml:space="preserve" width="100%" height="100%" version="1.1" style="shape-rendering:geometricPrecision; text-rendering:geometricPrecision; image-rendering:optimizeQuality; fill-rule:evenodd; clip-rule:evenodd"
viewBox="0 0 500 500"
 xmlns:xlink="http://www.w3.org/1999/xlink">
 <defs>
  <style type="text/css">
   <![CDATA[
    .str0 {stroke:#303030;stroke-width:5;stroke-linejoin:round}
    .fil1 {fill:#383838}
    .fil0 {fill:url(#id0)}
   ]]>
  </style>
  <linearGradient id="id0" gradientUnits="userSpaceOnUse" x1="344.998" y1="197.689" x2="155" y2="197.689">
   <stop offset="0" style="stop-color:#008EED"/>
   <stop offset="0.501961" style="stop-color:#46B5FF"/>
   <stop offset="1" style="stop-color:#008EED"/>
  </linearGradient>
 </defs>
 <g id="Layer_x0020_1">
  <metadata id="CorelCorpID_0Corel-Layer"/>
  <path class="fil0 str0" d="M250 368c52,0 95,-43 95,-95l0 -55 -190 0 0 55c0,52 43,95 95,95zm0 -340c52,0 95,42 95,95l0 50 -190 0 0 -30 85 0 0 -15 -85 0 0 -5c0,-4 0,-7 1,-11l84 0 0 -14 -82 0c2,-6 4,-11 6,-16l76 0 0 -15 -67 0c4,-5 8,-10 13,-14l54 0 0 -15 -32 0c12,-7 27,-10 42,-10z"/>
  <path class="fil1" d="M156 167l188 0c5,0 10,5 11,10l40 0c6,0 10,5 10,10l0 21c0,5 -4,10 -10,10l-5 0 0 47c0,69 -50,126 -115,138l0 40 75 0c8,0 15,6 15,15l0 14 -230 0 0 -14c0,-9 7,-15 15,-15l75 0 0 -40c-65,-12 -115,-69 -115,-138l0 -47 -5 0c-5,0 -10,-5 -10,-10l0 -21c0,-5 5,-10 10,-10l40 0c1,-5 6,-10 11,-10zm214 51l-15 0c-1,5 -6,10 -11,10l-188 0c-5,0 -10,-5 -11,-10l-15 0 0 50c0,66 54,120 120,120l0 0c66,0 120,-54 120,-120l0 -50z"/>
 </g>
</svg>
