<?xml version="1.0" encoding="UTF-8"?>
<!DOCTYPE svg PUBLIC "-//W3C//DTD SVG 1.1//EN" "http://www.w3.org/Graphics/SVG/1.1/DTD/svg11.dtd">
<!-- Creator: CorelDRAW X6 -->
<svg xmlns="http://www.w3.org/2000/svg" xml:space="preserve" width="100%" height="100%" version="1.1" style="shape-rendering:geometricPrecision; text-rendering:geometricPrecision; image-rendering:optimizeQuality; fill-rule:evenodd; clip-rule:evenodd"
viewBox="0 0 500 500"
 xmlns:xlink="http://www.w3.org/1999/xlink">
 <defs>
  <style type="text/css">
   <![CDATA[
    .str1 {stroke:#202020;stroke-width:5}
    .fil2 {fill:#303030}
    .fil3 {fill:#83C117}
    .fil4 {fill:#F2F2F2}
    .fil1 {fill:url(#id0)}
   ]]>
  </style>
  <linearGradient id="id0" gradientUnits="userSpaceOnUse" x1="439.187" y1="316.72" x2="65.372" y2="93.169">
   <stop offset="0" style="stop-color:#B9E3FF"/>
   <stop offset="1" style="stop-color:#E8F6FF"/>
  </linearGradient>
 </defs>
 <g id="Layer_x0020_1">
  <metadata id="CorelCorpID_0Corel-Layer"/>
  <path class="fil1" d="M65 84l375 0c5,0 10,5 10,11l0 220c0,6 -5,10 -10,10l-375 0c-6,0 -11,-4 -11,-10l0 -220c0,-6 5,-11 11,-11z"/>
  <path class="fil2 str1" d="M65 84l375 0c5,0 10,5 10,11l0 220c0,6 -5,10 -10,10l-375 0c-6,0 -11,-4 -11,-10l0 -220c0,-6 5,-11 11,-11zm55 315l79 0 0 -32 -147 0c-11,0 -21,-9 -21,-21l0 -262c0,-11 10,-20 21,-20l398 0c12,0 21,9 21,20l0 262c0,12 -9,21 -21,21l-146 0 0 32 78 0c9,0 16,7 16,15l0 6 -294 0 0 -6c0,-8 8,-15 16,-15z"/>
  <path class="fil3" d="M419 336c6,0 10,5 10,10 0,6 -4,11 -10,11 -6,0 -11,-5 -11,-11 0,-5 5,-10 11,-10z"/>
  <path class="fil4" d="M220 339l63 0c2,0 5,2 5,5l0 5c0,3 -3,5 -5,5l-63 0c-3,0 -6,-2 -6,-5l0 -5c0,-3 3,-5 6,-5z"/>
 </g>
</svg>
