<?xml version="1.0" encoding="UTF-8"?>
<!DOCTYPE svg PUBLIC "-//W3C//DTD SVG 1.1//EN" "http://www.w3.org/Graphics/SVG/1.1/DTD/svg11.dtd">
<!-- Creator: CorelDRAW X6 -->
<svg xmlns="http://www.w3.org/2000/svg" xml:space="preserve" width="100%" height="100%" version="1.1" style="shape-rendering:geometricPrecision; text-rendering:geometricPrecision; image-rendering:optimizeQuality; fill-rule:evenodd; clip-rule:evenodd"
viewBox="0 0 500 500"
 xmlns:xlink="http://www.w3.org/1999/xlink">
 <defs>
  <style type="text/css">
   <![CDATA[
    .str0 {stroke:#303030;stroke-width:10}
    .fil0 {fill:#303030}
    .fil1 {fill:url(#id0)}
   ]]>
  </style>
  <linearGradient id="id0" gradientUnits="userSpaceOnUse" x1="181.515" y1="443.499" x2="181.515" y2="56.501">
   <stop offset="0" style="stop-color:#008EED"/>
   <stop offset="1" style="stop-color:#2EACFF"/>
  </linearGradient>
 </defs>
 <g id="Layer_x0020_1">
  <metadata id="CorelCorpID_0Corel-Layer"/>
  <path class="fil0" d="M309 211l0 -149c9,51 88,31 116,89 22,43 21,109 21,158 0,19 -25,19 -24,0 -1,-64 -64,-98 -113,-98z"/>
  <path class="fil1 str0" d="M182 299c34,0 65,9 88,24l0 -278c0,-11 8,-20 19,-20l0 0c11,0 20,9 20,20l0 342 0 0 0 0c0,0 0,0 0,1 -1,48 -58,87 -127,87 -71,0 -128,-39 -128,-88 0,-49 57,-88 128,-88z"/>
 </g>
</svg>
