<?xml version="1.0" encoding="UTF-8"?>
<!DOCTYPE svg PUBLIC "-//W3C//DTD SVG 1.1//EN" "http://www.w3.org/Graphics/SVG/1.1/DTD/svg11.dtd">
<!-- Creator: CorelDRAW X6 -->
<svg xmlns="http://www.w3.org/2000/svg" xml:space="preserve" width="100%" height="100%" version="1.1" style="shape-rendering:geometricPrecision; text-rendering:geometricPrecision; image-rendering:optimizeQuality; fill-rule:evenodd; clip-rule:evenodd"
viewBox="0 0 500 500"
 xmlns:xlink="http://www.w3.org/1999/xlink">
 <defs>
  <style type="text/css">
   <![CDATA[
    .str1 {stroke:#171717;stroke-width:10}
    .fil2 {fill:#008EED}
    .fil1 {fill:#2EACFF}
   ]]>
  </style>
 </defs>
 <g id="Layer_x0020_1">
  <metadata id="CorelCorpID_0Corel-Layer"/>
  <path class="fil1 str1" d="M345 187l106 -106c48,47 2,169 -102,272 -103,104 -225,150 -272,103l106 -107c22,22 43,0 103,-59 59,-60 81,-81 59,-103z"/>
  <path class="fil2 str1" d="M110 310l-73 72c-9,9 -9,25 0,34l21 21 107 -106 -21 -21c-10,-10 -25,-10 -34,0zm268 -269l-72 73c-10,9 -10,24 0,34l21 21 106 -107 -21 -21c-9,-9 -25,-9 -34,0z"/>
 </g>
</svg>
