<?xml version="1.0" encoding="UTF-8"?>
<!DOCTYPE svg PUBLIC "-//W3C//DTD SVG 1.1//EN" "http://www.w3.org/Graphics/SVG/1.1/DTD/svg11.dtd">
<!-- Creator: CorelDRAW X6 -->
<svg xmlns="http://www.w3.org/2000/svg" xml:space="preserve" width="100%" height="100%" version="1.1" style="shape-rendering:geometricPrecision; text-rendering:geometricPrecision; image-rendering:optimizeQuality; fill-rule:evenodd; clip-rule:evenodd"
viewBox="0 0 500 500"
 xmlns:xlink="http://www.w3.org/1999/xlink">
 <defs>
  <style type="text/css">
   <![CDATA[
    .str1 {stroke:#303030;stroke-width:10}
    .fil1 {fill:#B1B1B1}
    .fil3 {fill:#474747}
    .fil4 {fill:url(#id0)}
    .fil2 {fill:url(#id1)}
   ]]>
  </style>
  <linearGradient id="id0" gradientUnits="userSpaceOnUse" x1="132.856" y1="157.012" x2="370.442" y2="157.012">
   <stop offset="0" style="stop-color:#0081D8"/>
   <stop offset="0.478431" style="stop-color:#27A9FF"/>
   <stop offset="1" style="stop-color:#0081D8"/>
  </linearGradient>
  <linearGradient id="id1" gradientUnits="userSpaceOnUse" xlink:href="#id0" x1="205.96" y1="134.165" x2="297.338" y2="134.165">
  </linearGradient>
 </defs>
 <g id="Layer_x0020_1">
  <metadata id="CorelCorpID_0Corel-Layer"/>
  <polygon class="fil1" points="236,281 267,281 267,428 252,474 236,429 "/>
  <rect class="fil2 str1" x="201" y="73" width="102" height="122"/>
  <polygon class="fil3" points="236,281 267,281 267,305 236,305 "/>
  <path class="fil4 str1" d="M191 73l122 0c20,0 37,-15 40,-35 0,-1 0,-2 -1,-4 -1,-1 -3,-1 -4,-1l-192 0c-2,0 -3,0 -4,1 -1,2 -2,3 -1,4 2,20 19,35 40,35zm-66 208l254 0c2,0 5,-2 5,-5l0 -10c0,-39 -32,-71 -71,-71l-117 0c-42,0 -76,34 -76,76l0 5c0,3 2,5 5,5z"/>
 </g>
</svg>
