<?xml version="1.0" encoding="UTF-8"?>
<!DOCTYPE svg PUBLIC "-//W3C//DTD SVG 1.1//EN" "http://www.w3.org/Graphics/SVG/1.1/DTD/svg11.dtd">
<!-- Creator: CorelDRAW X6 -->
<svg xmlns="http://www.w3.org/2000/svg" xml:space="preserve" width="100%" height="100%" version="1.1" style="shape-rendering:geometricPrecision; text-rendering:geometricPrecision; image-rendering:optimizeQuality; fill-rule:evenodd; clip-rule:evenodd"
viewBox="0 0 500 500"
 xmlns:xlink="http://www.w3.org/1999/xlink">
 <defs>
  <style type="text/css">
   <![CDATA[
    .str0 {stroke:#303030;stroke-width:5}
    .fil0 {fill:url(#id0)}
   ]]>
  </style>
  <linearGradient id="id0" gradientUnits="userSpaceOnUse" x1="250" y1="245.6" x2="250" y2="254.4">
   <stop offset="0" style="stop-color:#0099FF"/>
   <stop offset="1" style="stop-color:#0078C8"/>
  </linearGradient>
 </defs>
 <g id="Layer_x0020_1">
  <metadata id="CorelCorpID_0Corel-Layer"/>
  <path class="fil0 str0" d="M340 460l20 0 0 -20 -20 0 0 20zm0 -100l20 0 0 20 -20 0 0 0 0 -20 0 0zm0 -40l0 -20 20 0 0 -20 40 0 0 20 0 20 -40 0 -20 0m40 20l0 20 -20 0 0 -20 20 0 0 0zm60 -60l-20 0 0 20 -20 0 -40 0 0 20 0 20 -20 0 0 -20 0 0 -20 0 0 0 0 20 -20 0 0 -40 20 0 0 -19 -40 0c0,27 0,53 0,79l40 0 0 0 0 20 0 0 -38 0 0 20 18 0 0 20 -20 0 0 40c13,0 27,0 40,0l0 -20 0 -20 20 0 0 20 -20 0 -20 0 0 -20 20 0 0 -20 60 0 0 0 0 8 0 12 -20 0 0 20 20 0 0 20 20 0 0 -20 -20 0 0 -20 60 0 0 20 -20 0 0 20 40 0c0,-20 0,-40 0,-60l-60 0 0 -20 20 0 0 -20 -20 0c0,-13 0,-27 0,-40l20 0c0,13 0,27 0,40l20 0 20 0 0 20 -20 0 0 -20 0 -20 20 0 0 -40 -20 0 0 -20zm-140 -230l149 0 0 150 -149 0 0 -150zm-20 -20l190 0 0 190 -190 0 0 -190zm55 55l80 0 0 80 -80 0 0 -80zm-285 -35l149 0 0 150 -149 0 0 -150zm-20 -20l190 0 0 190 -190 0 0 -190zm55 55l80 0 0 80 -80 0 0 -80zm-35 215l149 0 0 150 -149 0 0 -150zm-20 -20l190 0 0 190 -190 0 0 -190zm55 55l80 0 0 80 -80 0 0 -80z"/>
 </g>
</svg>
