<?xml version="1.0" encoding="UTF-8"?>
<!DOCTYPE svg PUBLIC "-//W3C//DTD SVG 1.1//EN" "http://www.w3.org/Graphics/SVG/1.1/DTD/svg11.dtd">
<!-- Creator: CorelDRAW X6 -->
<svg xmlns="http://www.w3.org/2000/svg" xml:space="preserve" width="100%" height="100%" version="1.1" style="shape-rendering:geometricPrecision; text-rendering:geometricPrecision; image-rendering:optimizeQuality; fill-rule:evenodd; clip-rule:evenodd"
viewBox="0 0 500 500"
 xmlns:xlink="http://www.w3.org/1999/xlink">
 <defs>
  <style type="text/css">
   <![CDATA[
    .str0 {stroke:#303030;stroke-width:10}
    .fil0 {fill:url(#id0)}
    .fil1 {fill:url(#id1)}
   ]]>
  </style>
  <linearGradient id="id0" gradientUnits="userSpaceOnUse" x1="250" y1="30" x2="250" y2="470">
   <stop offset="0" style="stop-color:#17A2FF"/>
   <stop offset="1" style="stop-color:#0083DB"/>
  </linearGradient>
  <linearGradient id="id1" gradientUnits="userSpaceOnUse" x1="137.852" y1="138.07" x2="361.712" y2="361.93">
   <stop offset="0" style="stop-color:#D8D8D8"/>
   <stop offset="1" style="stop-color:#F2F2F2"/>
  </linearGradient>
 </defs>
 <g id="Layer_x0020_1">
  <metadata id="CorelCorpID_0Corel-Layer"/>
  <circle class="fil0 str0" cx="250" cy="250" r="220"/>
  <path class="fil1 str0" d="M204 321c0,-20 3,-36 11,-46 7,-10 20,-22 39,-35 10,-7 18,-14 23,-23 6,-9 9,-20 9,-32 0,-12 -4,-22 -10,-29 -7,-8 -16,-11 -28,-11 -10,0 -18,3 -25,9 -7,6 -10,15 -10,27l-73 0 0 -2c-1,-30 9,-53 29,-69 20,-15 46,-23 79,-23 35,0 62,9 82,27 20,17 30,41 30,71 0,19 -5,35 -16,51 -11,15 -25,27 -42,36 -9,6 -16,13 -19,20 -3,7 -5,17 -5,29l-74 0zm74 92l-74 0 0 -60 74 0 0 60z"/>
 </g>
</svg>
