<?xml version="1.0" encoding="UTF-8"?>
<!DOCTYPE svg PUBLIC "-//W3C//DTD SVG 1.1//EN" "http://www.w3.org/Graphics/SVG/1.1/DTD/svg11.dtd">
<!-- Creator: CorelDRAW X6 -->
<svg xmlns="http://www.w3.org/2000/svg" xml:space="preserve" width="100%" height="100%" version="1.1" style="shape-rendering:geometricPrecision; text-rendering:geometricPrecision; image-rendering:optimizeQuality; fill-rule:evenodd; clip-rule:evenodd"
viewBox="0 0 500 500"
 xmlns:xlink="http://www.w3.org/1999/xlink">
 <defs>
  <style type="text/css">
   <![CDATA[
    .fil3 {fill:#303030}
    .fil0 {fill:url(#id0)}
    .fil2 {fill:url(#id1)}
    .fil1 {fill:url(#id2)}
   ]]>
  </style>
  <linearGradient id="id0" gradientUnits="userSpaceOnUse" x1="247.62" y1="17.669" x2="252.38" y2="482.331">
   <stop offset="0" style="stop-color:#404040"/>
   <stop offset="1" style="stop-color:#282828"/>
  </linearGradient>
  <linearGradient id="id1" gradientUnits="userSpaceOnUse" xlink:href="#id0" x1="250" y1="396.168" x2="250" y2="96.724">
  </linearGradient>
  <linearGradient id="id2" gradientUnits="userSpaceOnUse" x1="250" y1="63.803" x2="250" y2="436.197">
   <stop offset="0" style="stop-color:#FFC146"/>
   <stop offset="1" style="stop-color:#ED9E00"/>
  </linearGradient>
 </defs>
 <g id="Layer_x0020_1">
  <metadata id="CorelCorpID_0Corel-Layer"/>
  <circle class="fil0" cx="250" cy="250" r="230"/>
  <circle class="fil1" cx="250" cy="250" r="190"/>
  <path class="fil2" d="M215 200l-45 -78c49,-28 111,-28 160,0l-45 78c-10,-6 -22,-9 -35,-9 -13,0 -25,3 -35,9zm105 61l90 0c0,57 -31,110 -80,138l-45 -78c21,-12 35,-34 35,-60zm-140 0l-90 0c0,57 31,110 80,138l45 -78c-21,-12 -35,-34 -35,-60z"/>
  <circle class="fil3" cx="250" cy="250" r="49"/>
 </g>
</svg>
