<?xml version="1.0" encoding="UTF-8"?>
<!DOCTYPE svg PUBLIC "-//W3C//DTD SVG 1.1//EN" "http://www.w3.org/Graphics/SVG/1.1/DTD/svg11.dtd">
<!-- Creator: CorelDRAW X6 -->
<svg xmlns="http://www.w3.org/2000/svg" xml:space="preserve" width="100%" height="100%" version="1.1" style="shape-rendering:geometricPrecision; text-rendering:geometricPrecision; image-rendering:optimizeQuality; fill-rule:evenodd; clip-rule:evenodd"
viewBox="0 0 500 500"
 xmlns:xlink="http://www.w3.org/1999/xlink">
 <defs>
  <style type="text/css">
   <![CDATA[
    .str1 {stroke:#303030;stroke-width:10}
    .fil2 {fill:#0083DB}
    .fil1 {fill:#2EACFF}
   ]]>
  </style>
 </defs>
 <g id="Layer_x0020_1">
  <metadata id="CorelCorpID_0Corel-Layer"/>
  <path class="fil1 str1" d="M392 417l-27 -50 16 -35 -51 -90c-1,-2 0,-5 2,-6l84 -49c3,-2 6,-1 7,1 10,18 20,35 30,52 12,21 23,45 13,61l-74 116zm-358 -123l57 1 22 32 103 1c3,0 5,2 5,4l0 98c0,2 -2,4 -5,4 -20,0 -40,0 -59,0 -24,1 -51,-2 -60,-18l-63 -122zm283 -249l-30 49 -38 3 -53 89c-1,2 -4,3 -6,2l-85 -49c-2,-1 -3,-4 -1,-6 10,-18 20,-35 30,-52 11,-21 27,-43 45,-42l138 6z"/>
  <path id="path2742" class="fil2 str1" d="M305 457l3 -19c0,-2 2,-4 4,-4l54 -2c25,-1 36,-26 35,-48 0,-16 -10,-35 -20,-52 -1,-2 -2,-3 -4,-3l-65 -1c-2,0 -4,-2 -4,-5l-1 -12c0,-2 -1,-4 -3,-4 -2,-1 -4,0 -5,2l-45 72c-1,2 -1,4 0,5l43 73c1,2 2,2 4,2 2,0 4,-2 4,-4zm-263 -259l15 12c2,1 3,4 2,6l-25 47c-12,23 5,45 24,55 14,8 35,9 55,9 2,0 3,-1 4,-3l34 -55c1,-2 4,-3 6,-2l11 6c2,1 4,1 6,-1 1,-1 1,-3 0,-5l-40 -75c-1,-2 -3,-3 -4,-3l-85 1c-2,0 -3,1 -4,3 -1,2 0,4 1,5zm353 -98l-17 7c-3,1 -5,0 -6,-1l-29 -46c-14,-21 -41,-18 -59,-6 -14,8 -25,26 -35,43 -1,2 -1,3 0,5l31 57c1,2 0,5 -2,6l-11 6c-1,2 -2,4 -2,6 1,2 3,3 5,3l85 2c2,1 4,0 4,-2l42 -73c1,-2 1,-4 -1,-6 -1,-1 -3,-2 -5,-1z"/>
 </g>
</svg>
