<?xml version="1.0" encoding="UTF-8"?>
<!DOCTYPE svg PUBLIC "-//W3C//DTD SVG 1.1//EN" "http://www.w3.org/Graphics/SVG/1.1/DTD/svg11.dtd">
<!-- Creator: CorelDRAW X6 -->
<svg xmlns="http://www.w3.org/2000/svg" xml:space="preserve" width="100%" height="100%" version="1.1" style="shape-rendering:geometricPrecision; text-rendering:geometricPrecision; image-rendering:optimizeQuality; fill-rule:evenodd; clip-rule:evenodd"
viewBox="0 0 500 500"
 xmlns:xlink="http://www.w3.org/1999/xlink">
 <defs>
  <style type="text/css">
   <![CDATA[
    .str0 {stroke:#303030;stroke-width:10}
    .fil2 {fill:#17A2FF}
    .fil0 {fill:#303030}
    .fil3 {fill:#F2F2F2}
    .fil1 {fill:url(#id0)}
   ]]>
  </style>
  <linearGradient id="id0" gradientUnits="userSpaceOnUse" x1="250" y1="200" x2="250" y2="379.997">
   <stop offset="0" style="stop-color:#0099FF"/>
   <stop offset="1" style="stop-color:#0083DB"/>
  </linearGradient>
 </defs>
 <g id="Layer_x0020_1">
  <metadata id="CorelCorpID_0Corel-Layer"/>
  <path class="fil0" d="M250 20c11,0 20,9 20,20 0,9 -6,17 -15,19l0 31 -10 0 0 -31c-9,-2 -15,-10 -15,-19 0,-11 9,-20 20,-20z"/>
  <rect class="fil1 str0" x="150" y="200" width="200" height="180" rx="16" ry="20"/>
  <path class="fil0" d="M309 390c-11,0 -20,9 -20,21l0 48c1,11 10,20 21,20 11,0 21,-9 21,-20l-1 -48c0,-12 -9,-21 -21,-21zm-119 0c-11,0 -21,9 -21,21l1 48c0,12 9,21 21,21 11,0 20,-9 20,-21l0 -48c-1,-12 -10,-21 -21,-21zm-81 -181c12,0 23,10 21,21l-10 70c-2,11 -9,21 -21,21 -11,0 -22,-10 -20,-21l10 -70c1,-11 9,-21 20,-21zm282 0c-12,0 -23,10 -21,21l10 70c2,11 9,21 21,21 11,0 22,-10 20,-21l-10 -70c-1,-11 -9,-21 -20,-21z"/>
  <path class="fil2 str0" d="M250 180l-89 0c-3,0 -6,-1 -8,-3 -2,-3 -3,-5 -2,-8 5,-50 48,-89 99,-89 51,0 94,39 99,89 1,3 0,5 -2,8 -2,2 -5,3 -8,3l-89 0z"/>
  <path class="fil3" d="M215 115c11,0 20,9 20,20 0,11 -9,20 -20,20 -11,0 -20,-9 -20,-20 0,-11 9,-20 20,-20zm70 0c11,0 20,9 20,20 0,11 -9,20 -20,20 -11,0 -20,-9 -20,-20 0,-11 9,-20 20,-20z"/>
 </g>
</svg>
