<?xml version="1.0" encoding="UTF-8"?>
<!DOCTYPE svg PUBLIC "-//W3C//DTD SVG 1.1//EN" "http://www.w3.org/Graphics/SVG/1.1/DTD/svg11.dtd">
<!-- Creator: CorelDRAW X6 -->
<svg xmlns="http://www.w3.org/2000/svg" xml:space="preserve" width="100%" height="100%" version="1.1" style="shape-rendering:geometricPrecision; text-rendering:geometricPrecision; image-rendering:optimizeQuality; fill-rule:evenodd; clip-rule:evenodd"
viewBox="0 0 500 500"
 xmlns:xlink="http://www.w3.org/1999/xlink">
 <defs>
  <style type="text/css">
   <![CDATA[
    .str1 {stroke:#303030;stroke-width:5}
    .str0 {stroke:#303030;stroke-width:10}
    .str2 {stroke:#303030;stroke-width:10;stroke-linecap:round}
    .str3 {stroke:#303030;stroke-width:15;stroke-linecap:round}
    .fil3 {fill:none}
    .fil1 {fill:#008EED}
    .fil2 {fill:#303030}
    .fil0 {fill:url(#id0)}
   ]]>
  </style>
  <linearGradient id="id0" gradientUnits="userSpaceOnUse" x1="250" y1="404.035" x2="250" y2="303.463">
   <stop offset="0" style="stop-color:#D8D8D8"/>
   <stop offset="1" style="stop-color:#F2F2F2"/>
  </linearGradient>
 </defs>
 <g id="Layer_x0020_1">
  <metadata id="CorelCorpID_0Corel-Layer"/>
  <rect class="fil0 str0" x="30" y="275" width="440" height="157" rx="21" ry="21"/>
  <rect class="fil1" x="51" y="390" width="398.093" height="10.4752"/>
  <path class="fil1 str1" d="M65 296c8,0 14,6 14,14 0,8 -6,14 -14,14 -8,0 -14,-6 -14,-14 0,-8 6,-14 14,-14zm56 0c8,0 14,6 14,14 0,8 -6,14 -14,14 -7,0 -14,-6 -14,-14 0,-8 7,-14 14,-14zm57 0c7,0 14,6 14,14 0,8 -7,14 -14,14 -8,0 -14,-6 -14,-14 0,-8 6,-14 14,-14z"/>
  <path class="fil2" d="M390 259c-2,-1 -4,-2 -6,-3l-8 -148c8,-2 14,-10 14,-19 0,-11 -9,-20 -20,-20 -11,0 -20,9 -20,20 0,9 6,17 14,19l-8 148c-2,1 -4,2 -6,3 -3,1 -5,0 -5,1l-5 14 60 0 -5 -14c0,-1 -3,0 -5,-1zm-210 190l-80 0c-5,0 -10,-5 -10,-10l0 -5 100 0 0 5c0,5 -4,10 -10,10zm220 0l-80 0c-6,0 -10,-5 -10,-10l0 -5 100 0 0 5c0,5 -5,10 -10,10z"/>
  <path class="fil3 str2" d="M331 66c-4,7 -6,15 -6,23 0,8 2,15 6,22m78 -45c4,7 6,15 6,23 0,8 -2,15 -6,22"/>
  <path class="fil3 str3" d="M305 126c-7,-11 -10,-24 -10,-37 0,-13 3,-26 10,-38m130 75c7,-11 10,-24 10,-37 0,-13 -3,-26 -10,-38"/>
 </g>
</svg>
