<?xml version="1.0" encoding="UTF-8"?>
<!DOCTYPE svg PUBLIC "-//W3C//DTD SVG 1.1//EN" "http://www.w3.org/Graphics/SVG/1.1/DTD/svg11.dtd">
<!-- Creator: CorelDRAW X6 -->
<svg xmlns="http://www.w3.org/2000/svg" xml:space="preserve" width="100%" height="100%" version="1.1" style="shape-rendering:geometricPrecision; text-rendering:geometricPrecision; image-rendering:optimizeQuality; fill-rule:evenodd; clip-rule:evenodd"
viewBox="0 0 500 500"
 xmlns:xlink="http://www.w3.org/1999/xlink">
 <defs>
  <style type="text/css">
   <![CDATA[
    .str1 {stroke:#303030;stroke-width:10}
    .str2 {stroke:#303030;stroke-width:30;stroke-linecap:round}
    .fil4 {fill:none}
    .fil3 {fill:#303030}
    .fil2 {fill:#74C7FF}
    .fil1 {fill:url(#id0)}
   ]]>
  </style>
  <linearGradient id="id0" gradientUnits="userSpaceOnUse" x1="254.779" y1="30.005" x2="254.779" y2="470.006">
   <stop offset="0" style="stop-color:#0099FF"/>
   <stop offset="1" style="stop-color:#0083DB"/>
  </linearGradient>
 </defs>
 <g id="Layer_x0020_1">
  <metadata id="CorelCorpID_0Corel-Layer"/>
  <path class="fil1 str1" d="M84 30l342 0c21,0 39,18 39,39l0 342c0,22 -18,39 -39,39l-39 0 0 15c0,3 -3,5 -5,5l-78 0c-3,0 -5,-2 -5,-5l0 -15 -98 0 0 15c0,3 -2,5 -5,5l-78 0c-3,0 -5,-2 -5,-5l0 -15 -29 0c-22,0 -39,-17 -39,-39 0,-106 0,-235 0,-342 0,-21 17,-39 39,-39z"/>
  <rect class="fil2 str1" x="93" y="73" width="324" height="334" rx="14" ry="15"/>
  <path class="fil3" d="M197 282l41 -42 -41 -41c-18,25 -18,58 0,83zm99 16l-41 -41 -41 41c24,18 57,18 82,0zm16 -99l-41 41 41 42c18,-25 18,-58 0,-83zm-98 -16l41 41 41 -41c-25,-18 -58,-18 -82,0zm-52 -36c5,-4 12,-4 16,0l15 15c36,-29 88,-29 124,0l14 -15c5,-4 12,-4 16,0 5,5 5,12 0,17l-14 14c29,36 29,88 0,125l14 14c5,4 5,12 0,16 -4,5 -11,5 -16,0l-14 -14c-36,29 -88,29 -124,0l-15 14c-4,5 -11,5 -16,0 -4,-4 -4,-12 0,-16l14 -14c-29,-37 -29,-89 0,-125l-14 -14c-4,-5 -4,-12 0,-17z"/>
  <path class="fil4 str2" d="M94 138l0 52m0 98l0 52"/>
 </g>
</svg>
