<?xml version="1.0" encoding="UTF-8"?>
<!DOCTYPE svg PUBLIC "-//W3C//DTD SVG 1.1//EN" "http://www.w3.org/Graphics/SVG/1.1/DTD/svg11.dtd">
<!-- Creator: CorelDRAW X6 -->
<svg xmlns="http://www.w3.org/2000/svg" xml:space="preserve" width="100%" height="100%" version="1.1" style="shape-rendering:geometricPrecision; text-rendering:geometricPrecision; image-rendering:optimizeQuality; fill-rule:evenodd; clip-rule:evenodd"
viewBox="0 0 500 500"
 xmlns:xlink="http://www.w3.org/1999/xlink">
 <defs>
  <style type="text/css">
   <![CDATA[
    .str2 {stroke:#303030;stroke-width:10}
    .str0 {stroke:#303030;stroke-width:10;stroke-linecap:round;stroke-linejoin:round}
    .str1 {stroke:#0099FF;stroke-width:15;stroke-linecap:round}
    .fil2 {fill:none}
    .fil1 {fill:#303030}
    .fil3 {fill:#74C7FF}
    .fil0 {fill:url(#id0)}
   ]]>
  </style>
  <linearGradient id="id0" gradientUnits="userSpaceOnUse" x1="250.741" y1="234.417" x2="170.177" y2="314.981">
   <stop offset="0" style="stop-color:#008EED"/>
   <stop offset="1" style="stop-color:#17A2FF"/>
  </linearGradient>
 </defs>
 <g id="Layer_x0020_1">
  <metadata id="CorelCorpID_0Corel-Layer"/>
  <path class="fil0" d="M235 251l98 98c2,2 3,5 3,8 0,3 -1,5 -3,7 -27,23 -62,37 -98,37 -83,0 -150,-68 -150,-150 0,-37 13,-71 36,-99 2,-2 5,-3 7,-3 3,0 6,1 8,3l99 99z"/>
  <path class="fil1" d="M55 431l30 0 19 -107c16,29 42,52 73,65l8 42 30 0c5,0 10,4 10,10l0 30 -180 0 0 -30c0,-6 4,-10 10,-10z"/>
  <path class="fil2 str0" d="M309 176l-74 75m49 50l24 -124 -124 24"/>
  <path class="fil2 str1" d="M255 29c111,0 200,90 200,200m-200 -158c88,0 159,71 159,158m-159 -118c66,0 119,53 119,118"/>
  <circle class="fil1" cx="310" cy="176" r="15"/>
  <path class="fil3" d="M127 355c0,-27 25,-112 65,-147l-24 -24c-28,35 -45,97 -45,129 0,5 0,38 4,42z"/>
  <path class="fil2 str2" d="M235 251l98 98c2,2 3,5 3,8 0,3 -1,5 -3,7 -27,23 -62,37 -98,37 -83,0 -150,-68 -150,-150 0,-37 13,-71 36,-99 2,-2 5,-3 7,-3 3,0 6,1 8,3l99 99z"/>
 </g>
</svg>
