<?xml version="1.0" encoding="utf-8"?>
<!-- Generator: Adobe Illustrator 13.0.0, SVG Export Plug-In . SVG Version: 6.00 Build 14948)  -->
<!DOCTYPE svg PUBLIC "-//W3C//DTD SVG 1.1//EN" "http://www.w3.org/Graphics/SVG/1.1/DTD/svg11.dtd">
<svg version="1.1" id="Layer_1" xmlns="http://www.w3.org/2000/svg" xmlns:xlink="http://www.w3.org/1999/xlink" x="0px" y="0px"
	 width="595.275px" height="841.891px" viewBox="0 0 595.275 841.891" enable-background="new 0 0 595.275 841.891"
	 xml:space="preserve">
<g>
	<path fill="#E5E5E5" stroke="#303030" stroke-width="10" stroke-linejoin="round" d="M415.502,291.175
		c-57.146,17.858-147.628,61.909-240.491,154.772l41.669,36.907l342.878-204.775C539.319,255.459,496.46,267.364,415.502,291.175z"
		/>
	<path fill="#F2F2F2" stroke="#303030" stroke-width="10" stroke-linejoin="round" d="M216.68,359.036l-41.669,36.907
		c92.863,92.863,183.344,136.914,240.491,154.772c80.958,23.811,123.817,35.716,144.057,13.096L216.68,359.036z"/>
	<path fill="#008EED" stroke="#303030" stroke-width="10" stroke-linejoin="round" d="M220.252,319.748
		c22.621-38.098,9.524-86.91-28.573-108.34l-36.907-21.43c-38.098-22.621-86.91-9.524-108.34,28.573
		c-21.43,38.098-8.334,86.91,28.573,108.34l25.001,14.287c25.001,15.477,57.146,27.382,73.814,53.574l1.191,1.19l41.669-36.907
		l-22.62-11.905C205.965,338.797,214.299,331.654,220.252,319.748z M196.441,305.462c-15.477,25.001-48.813,33.335-76.195,16.668
		l-26.192-14.287c-27.383-16.668-38.098-50.003-22.621-75.005c14.287-25.001,47.622-33.335,75.005-16.668l26.192,14.287
		C200.013,245.934,210.728,280.46,196.441,305.462z"/>
	<path fill="#008EED" stroke="#303030" stroke-width="10" stroke-linejoin="round" d="M220.252,522.142
		c-5.953-11.906-14.287-19.049-26.192-27.383l22.62-11.905l-41.669-36.907l-1.191,1.19c-16.667,26.192-48.813,38.098-73.814,53.574
		l-25.001,14.287c-36.907,21.43-50.003,70.242-28.573,108.34c21.43,38.098,70.242,51.194,108.34,28.573l36.907-21.43
		C229.776,609.052,242.873,560.24,220.252,522.142z M172.63,611.433l-26.192,14.286c-27.383,16.668-60.718,8.334-75.005-16.667
		c-15.477-25.002-4.762-58.337,22.621-75.005l26.192-14.287c27.383-16.667,60.718-8.333,76.195,16.668
		C210.728,561.43,200.013,595.956,172.63,611.433z"/>
	<circle fill="#434242" cx="249.934" cy="420.943" r="18.607"/>
</g>
</svg>
