<?xml version="1.0" encoding="UTF-8"?>
<!DOCTYPE svg PUBLIC "-//W3C//DTD SVG 1.1//EN" "http://www.w3.org/Graphics/SVG/1.1/DTD/svg11.dtd">
<!-- Creator: CorelDRAW X6 -->
<svg xmlns="http://www.w3.org/2000/svg" xml:space="preserve" width="100%" height="100%" version="1.1" style="shape-rendering:geometricPrecision; text-rendering:geometricPrecision; image-rendering:optimizeQuality; fill-rule:evenodd; clip-rule:evenodd"
viewBox="0 0 500 500"
 xmlns:xlink="http://www.w3.org/1999/xlink">
 <defs>
  <style type="text/css">
   <![CDATA[
    .str2 {stroke:#303030;stroke-width:5}
    .str1 {stroke:#303030;stroke-width:10}
    .fil3 {fill:#F2F2F2}
    .fil2 {fill:url(#id0)}
    .fil1 {fill:url(#id1)}
   ]]>
  </style>
  <linearGradient id="id0" gradientUnits="userSpaceOnUse" x1="30.238" y1="195.778" x2="361.784" y2="195.778">
   <stop offset="0" style="stop-color:#A4A4A4"/>
   <stop offset="1" style="stop-color:#F2F2F2"/>
  </linearGradient>
  <linearGradient id="id1" gradientUnits="userSpaceOnUse" x1="240.643" y1="462.784" x2="463.465" y2="239.85">
   <stop offset="0" style="stop-color:#0078C8"/>
   <stop offset="1" style="stop-color:#46B5FF"/>
  </linearGradient>
 </defs>
 <g id="Layer_x0020_1">
  <metadata id="CorelCorpID_0Corel-Layer"/>
  <path class="fil1 str1" d="M456 456c-19,18 -51,20 -68,0l-104 -127 45 -45 127 105c20,16 18,48 0,67z"/>
  <path class="fil2 str1" d="M313 79c65,64 65,169 0,234 -65,64 -169,64 -234,0 -65,-65 -65,-170 0,-234 65,-65 169,-65 234,0z"/>
  <circle class="fil3 str2" transform="matrix(0.672379 0.671433 -0.672379 0.671433 196.009 195.776)" r="136"/>
 </g>
</svg>
