<?xml version="1.0" encoding="UTF-8"?>
<!DOCTYPE svg PUBLIC "-//W3C//DTD SVG 1.1//EN" "http://www.w3.org/Graphics/SVG/1.1/DTD/svg11.dtd">
<!-- Creator: CorelDRAW X6 -->
<svg xmlns="http://www.w3.org/2000/svg" xml:space="preserve" width="100%" height="100%" version="1.1" style="shape-rendering:geometricPrecision; text-rendering:geometricPrecision; image-rendering:optimizeQuality; fill-rule:evenodd; clip-rule:evenodd"
viewBox="0 0 500 500"
 xmlns:xlink="http://www.w3.org/1999/xlink">
 <defs>
  <style type="text/css">
   <![CDATA[
    .str0 {stroke:#333333;stroke-width:10}
    .str2 {stroke:white;stroke-width:10}
    .str1 {stroke:#747474;stroke-width:15}
    .fil3 {fill:none}
    .fil2 {fill:white}
    .fil0 {fill:url(#id0)}
    .fil1 {fill:url(#id1)}
   ]]>
  </style>
  <linearGradient id="id0" gradientUnits="userSpaceOnUse" x1="463.211" y1="36.875" x2="94.807" y2="405.279">
   <stop offset="0" style="stop-color:#FBFBFC"/>
   <stop offset="1" style="stop-color:#E2E3E3"/>
  </linearGradient>
  <linearGradient id="id1" gradientUnits="userSpaceOnUse" x1="203.398" y1="199.211" x2="303.898" y2="299.711">
   <stop offset="0" style="stop-color:#008BFF"/>
   <stop offset="1" style="stop-color:#4EAFFF"/>
  </linearGradient>
 </defs>
 <g id="Layer_x0020_1">
  <metadata id="CorelCorpID_0Corel-Layer"/>
  <g id="_1218626112">
   <path class="fil0 str0" d="M34 315l281 -281c3,-3 6,-4 9,-4l134 0c6,0 12,5 12,12l0 134c0,4 -1,6 -4,9l-281 282c-5,4 -13,4 -17,0l-134 -135c-5,-4 -5,-12 0,-17z"/>
   <path class="fil1" d="M88 311l218 -218c5,-5 12,-5 17,0l84 84c5,5 5,12 0,17l-218 218c-5,5 -12,5 -17,0l-84 -84c-5,-5 -5,-12 0,-17z"/>
   <circle class="fil2 str1" transform="matrix(0.839165 -0.839165 0.839165 0.839165 402.785 97.3003)" r="27"/>
   <path class="fil3 str2" d="M120 335l132 -133m-87 178l100 -100m-123 78l98 -98"/>
  </g>
 </g>
</svg>
