<?xml version="1.0" encoding="UTF-8"?>
<!DOCTYPE svg PUBLIC "-//W3C//DTD SVG 1.1//EN" "http://www.w3.org/Graphics/SVG/1.1/DTD/svg11.dtd">
<!-- Creator: CorelDRAW X6 -->
<svg xmlns="http://www.w3.org/2000/svg" xml:space="preserve" width="100%" height="100%" version="1.1" style="shape-rendering:geometricPrecision; text-rendering:geometricPrecision; image-rendering:optimizeQuality; fill-rule:evenodd; clip-rule:evenodd"
viewBox="0 0 500 500"
 xmlns:xlink="http://www.w3.org/1999/xlink">
 <defs>
  <style type="text/css">
   <![CDATA[
    .str0 {stroke:#303030;stroke-width:10}
    .fil2 {fill:#303030}
    .fil1 {fill:url(#id0)}
    .fil0 {fill:url(#id1)}
   ]]>
  </style>
  <linearGradient id="id0" gradientUnits="userSpaceOnUse" x1="249.999" y1="30.001" x2="249.999" y2="91.394">
   <stop offset="0" style="stop-color:#0099FF"/>
   <stop offset="1" style="stop-color:#0083DB"/>
  </linearGradient>
  <linearGradient id="id1" gradientUnits="userSpaceOnUse" x1="250" y1="90.064" x2="250" y2="445.746">
   <stop offset="0" style="stop-color:#D8D8D8"/>
   <stop offset="1" style="stop-color:#F2F2F2"/>
  </linearGradient>
 </defs>
 <g id="Layer_x0020_1">
  <metadata id="CorelCorpID_0Corel-Layer"/>
  <path class="fil0 str0" d="M91 66l318 0c8,0 15,7 15,15l0 374c0,8 -7,15 -15,15l-318 0c-8,0 -15,-7 -15,-15l0 -374c0,-8 7,-15 15,-15z"/>
  <path class="fil1 str0" d="M381 91l-262 0c-2,0 -4,-1 -5,-3 0,-2 0,-4 1,-5l31 -31c1,-1 2,-2 4,-2l64 0c3,0 5,-2 5,-5l0 -10c0,-3 3,-5 5,-5l52 0c2,0 5,2 5,5l0 10c0,3 2,5 5,5l64 0c2,0 3,1 4,2l31 31c1,1 1,3 1,5 -1,2 -3,3 -5,3z"/>
  <path class="fil2" d="M117 143l41 0 0 40 -41 0 0 -40zm0 81l41 0 0 41 -41 0 0 -41zm0 82l41 0 0 41 -41 0 0 -41zm0 82l41 0 0 41 -41 0 0 -41zm56 -215l169 0 0 10 -169 0 0 -10zm0 82l108 0 0 10 -108 0 0 -10zm0 82l169 0 0 10 -169 0 0 -10zm0 82l184 0 0 10 -184 0 0 -10zm0 -271l210 0 0 10 -210 0 0 -10zm0 82l169 0 0 10 -169 0 0 -10zm0 81l133 0 0 11 -133 0 0 -11zm0 82l154 0 0 10 -154 0 0 -10z"/>
 </g>
</svg>
