<?xml version="1.0" encoding="UTF-8"?>
<!DOCTYPE svg PUBLIC "-//W3C//DTD SVG 1.1//EN" "http://www.w3.org/Graphics/SVG/1.1/DTD/svg11.dtd">
<!-- Creator: CorelDRAW X6 -->
<svg xmlns="http://www.w3.org/2000/svg" xml:space="preserve" width="100%" height="100%" version="1.1" style="shape-rendering:geometricPrecision; text-rendering:geometricPrecision; image-rendering:optimizeQuality; fill-rule:evenodd; clip-rule:evenodd"
viewBox="0 0 500 500"
 xmlns:xlink="http://www.w3.org/1999/xlink">
 <defs>
  <style type="text/css">
   <![CDATA[
    .str0 {stroke:#303030;stroke-width:10}
    .fil1 {fill:#303030}
    .fil0 {fill:url(#id0)}
   ]]>
  </style>
  <linearGradient id="id0" gradientUnits="userSpaceOnUse" x1="362.265" y1="229.8" x2="362.265" y2="260.2">
   <stop offset="0" style="stop-color:#17A2FF"/>
   <stop offset="1" style="stop-color:#0083DB"/>
  </linearGradient>
 </defs>
 <g id="Layer_x0020_1">
  <metadata id="CorelCorpID_0Corel-Layer"/>
  <path class="fil0 str0" d="M252 55l220 0 0 50 -220 0 0 -50zm0 110l220 0 0 50 -220 0 0 -50zm0 110l220 0 0 50 -220 0 0 -50zm0 110l220 0 0 50 -220 0 0 -50z"/>
  <path class="fil1" d="M106 448l-71 -72c-4,-3 -7,-7 -7,-14 0,-7 7,-14 14,-14l36 0c3,0 7,-4 7,-7 0,-61 0,-121 0,-182 0,-3 -4,-7 -7,-7l-36 0c-7,0 -14,-7 -14,-14 0,-7 3,-11 7,-14l71 -72c5,-5 10,-7 15,-7 4,0 9,2 14,7l71 72c4,3 8,7 8,14 0,7 -8,14 -15,14l-35 0c-4,0 -8,4 -8,7 0,61 0,121 0,182 0,3 4,7 8,7l35 0c7,0 15,7 15,14 0,7 -4,11 -8,14l-71 72c-5,5 -10,7 -14,7 -5,0 -10,-2 -15,-7z"/>
 </g>
</svg>
