<?xml version="1.0" encoding="UTF-8"?>
<!DOCTYPE svg PUBLIC "-//W3C//DTD SVG 1.1//EN" "http://www.w3.org/Graphics/SVG/1.1/DTD/svg11.dtd">
<!-- Creator: CorelDRAW X6 -->
<svg xmlns="http://www.w3.org/2000/svg" xml:space="preserve" width="100%" height="100%" version="1.1" style="shape-rendering:geometricPrecision; text-rendering:geometricPrecision; image-rendering:optimizeQuality; fill-rule:evenodd; clip-rule:evenodd"
viewBox="0 0 500 500"
 xmlns:xlink="http://www.w3.org/1999/xlink">
 <defs>
  <style type="text/css">
   <![CDATA[
    .str0 {stroke:#303030;stroke-width:10}
    .fil0 {fill:#006DB6}
    .fil1 {fill:#303030}
    .fil2 {fill:url(#id0)}
   ]]>
  </style>
  <linearGradient id="id0" gradientUnits="userSpaceOnUse" x1="209.62" y1="280.739" x2="334.296" y2="280.739">
   <stop offset="0" style="stop-color:#0078C8"/>
   <stop offset="0.478431" style="stop-color:#17A2FF"/>
   <stop offset="1" style="stop-color:#0081D8"/>
  </linearGradient>
 </defs>
 <g id="Layer_x0020_1">
  <metadata id="CorelCorpID_0Corel-Layer"/>
  <path class="fil0 str0" d="M318 30l-92 0c-5,0 -10,4 -9,8l5 32c2,11 9,20 20,20l60 0c11,0 18,-9 20,-20l5 -32c1,-4 -4,-8 -9,-8z"/>
  <path class="fil1" d="M152 316l-5 -65c-1,-8 1,-9 5,-14l91 -119c3,-3 4,-4 6,-4l24 13c1,1 1,3 0,7l-49 141c-2,7 -2,10 -8,13l-58 31c-2,1 -5,-1 -6,-3z"/>
  <path class="fil2 str0" d="M265 467l-69 -92c-8,-10 -6,-14 -3,-25l46 -250c2,-7 3,-10 6,-10l53 0c4,0 5,3 7,10l46 250c3,11 5,15 -3,25l-69 92c-3,4 -11,4 -14,0z"/>
 </g>
</svg>
