<?xml version="1.0" encoding="UTF-8"?>
<!DOCTYPE svg PUBLIC "-//W3C//DTD SVG 1.1//EN" "http://www.w3.org/Graphics/SVG/1.1/DTD/svg11.dtd">
<!-- Creator: CorelDRAW X6 -->
<svg xmlns="http://www.w3.org/2000/svg" xml:space="preserve" width="100%" height="100%" version="1.1" style="shape-rendering:geometricPrecision; text-rendering:geometricPrecision; image-rendering:optimizeQuality; fill-rule:evenodd; clip-rule:evenodd"
viewBox="0 0 500 500"
 xmlns:xlink="http://www.w3.org/1999/xlink">
 <defs>
  <style type="text/css">
   <![CDATA[
    .str2 {stroke:#434242;stroke-width:5}
    .str1 {stroke:#303030;stroke-width:10}
    .fil6 {fill:#434242}
    .fil1 {fill:#303030}
    .fil5 {fill:#77BB00}
    .fil3 {fill:#ED2F00}
    .fil4 {fill:#FFB217}
    .fil2 {fill:url(#id0)}
   ]]>
  </style>
  <linearGradient id="id0" gradientUnits="userSpaceOnUse" x1="250.005" y1="38.806" x2="250.005" y2="461.204">
   <stop offset="0" style="stop-color:#505050"/>
   <stop offset="1" style="stop-color:#7D7D7D"/>
  </linearGradient>
 </defs>
 <g id="Layer_x0020_1">
  <metadata id="CorelCorpID_0Corel-Layer"/>
  <g id="_934642704">
   <path class="fil1" d="M150 61l-100 0 0 10c0,55 45,100 100,100l0 0 0 -110z"/>
   <path class="fil1" d="M150 200l-100 0 0 10c0,55 45,100 100,100l0 0 0 -110z"/>
   <path class="fil1" d="M150 340l-100 0 0 10c0,55 45,100 100,100l0 0 0 -110z"/>
   <path class="fil1" d="M350 61l100 0 0 10c0,55 -45,100 -100,100l0 0 0 -110z"/>
   <path class="fil1" d="M350 200l100 0 0 10c0,55 -45,100 -100,100l0 0 0 -110z"/>
   <path class="fil1" d="M350 340l100 0 0 10c0,55 -45,100 -100,100l0 0 0 -110z"/>
  </g>
  <rect class="fil2 str1" x="150" y="30" width="200" height="440" rx="10" ry="10"/>
  <circle class="fil3 str2" cx="250" cy="116" r="55"/>
  <circle class="fil4 str2" cx="250" cy="250" r="55"/>
  <circle class="fil5 str2" cx="250" cy="385" r="55"/>
  <rect class="fil6" x="113" y="61" width="36.892" height="121.754"/>
 </g>
</svg>
