<?xml version="1.0" encoding="UTF-8"?>
<!DOCTYPE svg PUBLIC "-//W3C//DTD SVG 1.1//EN" "http://www.w3.org/Graphics/SVG/1.1/DTD/svg11.dtd">
<!-- Creator: CorelDRAW X6 -->
<svg xmlns="http://www.w3.org/2000/svg" xml:space="preserve" width="100%" height="100%" version="1.1" style="shape-rendering:geometricPrecision; text-rendering:geometricPrecision; image-rendering:optimizeQuality; fill-rule:evenodd; clip-rule:evenodd"
viewBox="0 0 500 500"
 xmlns:xlink="http://www.w3.org/1999/xlink">
 <defs>
  <style type="text/css">
   <![CDATA[
    .str1 {stroke:#434242;stroke-width:5}
    .str0 {stroke:#303030;stroke-width:10}
    .str2 {stroke:#303030;stroke-width:20;stroke-linecap:round}
    .str3 {stroke:#303030;stroke-width:25;stroke-linecap:round}
    .fil2 {fill:none}
    .fil1 {fill:#EDEDED}
    .fil0 {fill:url(#id0)}
   ]]>
  </style>
  <linearGradient id="id0" gradientUnits="userSpaceOnUse" x1="250" y1="333.884" x2="250" y2="148.324">
   <stop offset="0" style="stop-color:#008BFF"/>
   <stop offset="1" style="stop-color:#00AAFF"/>
  </linearGradient>
 </defs>
 <g id="Layer_x0020_1">
  <metadata id="CorelCorpID_0Corel-Layer"/>
  <path class="fil0 str0" d="M154 81l192 0c23,0 42,19 42,43l0 234c0,24 -19,43 -42,43l-192 0c-23,0 -42,-19 -42,-43l0 -234c0,-24 19,-43 42,-43z"/>
  <path class="fil1 str1" d="M170 305c12,0 22,10 22,21 0,12 -10,22 -22,22 -12,0 -21,-10 -21,-22 0,-11 9,-21 21,-21zm160 0c12,0 21,10 21,21 0,12 -9,22 -21,22 -12,0 -22,-10 -22,-22 0,-11 10,-21 22,-21zm-128 -198l96 0c6,0 10,5 10,10 0,6 -4,11 -10,11l-96 0c-6,0 -10,-5 -10,-11 0,-5 4,-10 10,-10zm-48 49l192 0c8,0 16,7 16,16l0 74c0,9 -8,16 -16,16l-192 0c-8,0 -16,-7 -16,-16l0 -74c0,-9 8,-16 16,-16z"/>
  <path class="fil2 str2" d="M358 425l37 45m-253 -45l-37 45m55 -19l180 0"/>
  <line class="fil2 str3" x1="192" y1="30" x2="308" y2= "30" />
 </g>
</svg>
