<?xml version="1.0" encoding="UTF-8"?>
<!DOCTYPE svg PUBLIC "-//W3C//DTD SVG 1.1//EN" "http://www.w3.org/Graphics/SVG/1.1/DTD/svg11.dtd">
<!-- Creator: CorelDRAW X6 -->
<svg xmlns="http://www.w3.org/2000/svg" xml:space="preserve" width="100%" height="100%" version="1.1" style="shape-rendering:geometricPrecision; text-rendering:geometricPrecision; image-rendering:optimizeQuality; fill-rule:evenodd; clip-rule:evenodd"
viewBox="0 0 500 500"
 xmlns:xlink="http://www.w3.org/1999/xlink">
 <defs>
  <style type="text/css">
   <![CDATA[
    .str1 {stroke:#282828;stroke-width:5}
    .str0 {stroke:#303030;stroke-width:10}
    .fil0 {fill:url(#id0)}
    .fil2 {fill:url(#id1)}
    .fil1 {fill:url(#id2)}
   ]]>
  </style>
  <linearGradient id="id0" gradientUnits="userSpaceOnUse" x1="250" y1="87.388" x2="250" y2="412.612">
   <stop offset="0" style="stop-color:#0099FF"/>
   <stop offset="1" style="stop-color:#0083DB"/>
  </linearGradient>
  <linearGradient id="id1" gradientUnits="userSpaceOnUse" x1="250.409" y1="140.574" x2="250.409" y2="359.426">
   <stop offset="0" style="stop-color:#D8D8D8"/>
   <stop offset="1" style="stop-color:#F2F2F2"/>
  </linearGradient>
  <linearGradient id="id2" gradientUnits="userSpaceOnUse" xlink:href="#id1" x1="263.507" y1="175.84" x2="263.507" y2="324.162">
  </linearGradient>
 </defs>
 <g id="Layer_x0020_1">
  <metadata id="CorelCorpID_0Corel-Layer"/>
  <rect class="fil0 str0" x="30" y="87" width="440" height="325" rx="43" ry="43"/>
  <path class="fil1 str1" d="M333 242l-65 -37 -65 -38c-3,-1 -6,-1 -9,0 -3,2 -4,5 -4,8l0 150c0,3 1,6 4,8 3,1 6,1 9,0l65 -38 65 -37c3,-2 4,-5 4,-8 0,-3 -1,-6 -4,-8z"/>
  <path class="fil2" d="M385 126l48 0 0 47 -48 0 0 -47zm0 67l48 0 0 47 -48 0 0 -47zm0 67l48 0 0 47 -48 0 0 -47zm0 67l48 0 0 47 -48 0 0 -47zm-317 -201l48 0 0 47 -48 0 0 -47zm0 67l48 0 0 47 -48 0 0 -47zm0 67l48 0 0 47 -48 0 0 -47zm0 67l48 0 0 47 -48 0 0 -47z"/>
 </g>
</svg>
