<?xml version="1.0" encoding="UTF-8"?>
<!DOCTYPE svg PUBLIC "-//W3C//DTD SVG 1.1//EN" "http://www.w3.org/Graphics/SVG/1.1/DTD/svg11.dtd">
<!-- Creator: CorelDRAW X6 -->
<svg xmlns="http://www.w3.org/2000/svg" xml:space="preserve" width="100%" height="100%" version="1.1" style="shape-rendering:geometricPrecision; text-rendering:geometricPrecision; image-rendering:optimizeQuality; fill-rule:evenodd; clip-rule:evenodd"
viewBox="0 0 500 500"
 xmlns:xlink="http://www.w3.org/1999/xlink">
 <defs>
  <style type="text/css">
   <![CDATA[
    .str2 {stroke:#303030;stroke-width:10}
    .str1 {stroke:#303030;stroke-width:40;stroke-linecap:round}
    .fil1 {fill:none}
    .fil2 {fill:#303030}
    .fil3 {fill:url(#id0)}
   ]]>
  </style>
  <linearGradient id="id0" gradientUnits="userSpaceOnUse" x1="259.1" y1="250.183" x2="109.553" y2="250.183">
   <stop offset="0" style="stop-color:#008BFF"/>
   <stop offset="1" style="stop-color:#00AAFF"/>
  </linearGradient>
 </defs>
 <g id="Layer_x0020_1">
  <metadata id="CorelCorpID_0Corel-Layer"/>
  <path class="fil1 str1" d="M391 109c38,37 59,88 59,141 0,53 -21,104 -59,142m-42 -241c26,27 41,62 41,99 0,37 -15,73 -41,99m-42 -155c15,15 23,35 23,56 0,21 -8,42 -23,57"/>
  <path class="fil2" d="M50 170l60 0 0 162 -60 0c-11,0 -20,-9 -20,-20l0 -122c0,-11 9,-20 20,-20z"/>
  <path class="fil3 str2" d="M121 140l110 -70c6,-4 13,-3 19,2 6,4 9,10 9,18l0 320c0,7 -3,14 -9,18 -5,4 -12,6 -18,2l-110 -69c-7,-5 -12,-12 -12,-21l0 -180c0,-8 4,-15 11,-20z"/>
 </g>
</svg>
