<?xml version="1.0" encoding="UTF-8"?>
<!DOCTYPE svg PUBLIC "-//W3C//DTD SVG 1.1//EN" "http://www.w3.org/Graphics/SVG/1.1/DTD/svg11.dtd">
<!-- Creator: CorelDRAW X6 -->
<svg xmlns="http://www.w3.org/2000/svg" xml:space="preserve" width="100%" height="100%" version="1.1" style="shape-rendering:geometricPrecision; text-rendering:geometricPrecision; image-rendering:optimizeQuality; fill-rule:evenodd; clip-rule:evenodd"
viewBox="0 0 500 500"
 xmlns:xlink="http://www.w3.org/1999/xlink">
 <defs>
  <style type="text/css">
   <![CDATA[
    .str1 {stroke:#303030;stroke-width:10}
    .fil1 {fill:#303030}
    .fil2 {fill:url(#id0)}
    .fil3 {fill:url(#id1)}
   ]]>
  </style>
  <linearGradient id="id0" gradientUnits="userSpaceOnUse" x1="259.1" y1="250.183" x2="109.553" y2="250.183">
   <stop offset="0" style="stop-color:#008BFF"/>
   <stop offset="1" style="stop-color:#00AAFF"/>
  </linearGradient>
  <linearGradient id="id1" gradientUnits="userSpaceOnUse" x1="320.968" y1="185.966" x2="449.044" y2="314.042">
   <stop offset="0" style="stop-color:#FF3300"/>
   <stop offset="1" style="stop-color:#C82800"/>
  </linearGradient>
 </defs>
 <g id="Layer_x0020_1">
  <metadata id="CorelCorpID_0Corel-Layer"/>
  <path class="fil1" d="M50 170l60 0 0 162 -60 0c-11,0 -20,-9 -20,-20l0 -122c0,-11 9,-20 20,-20z"/>
  <path class="fil2 str1" d="M121 140l110 -70c6,-4 13,-3 19,2 6,4 9,10 9,18l0 320c0,7 -3,14 -9,18 -5,4 -12,6 -18,2l-110 -69c-7,-5 -12,-12 -12,-21l0 -180c0,-8 4,-15 11,-20z"/>
  <polygon class="fil3 str1" points="431,170 465,204 419,250 465,296 431,330 385,284 339,330 305,296 351,250 305,204 339,170 385,216 "/>
 </g>
</svg>
