<?xml version="1.0" encoding="UTF-8"?>
<!DOCTYPE svg PUBLIC "-//W3C//DTD SVG 1.1//EN" "http://www.w3.org/Graphics/SVG/1.1/DTD/svg11.dtd">
<!-- Creator: CorelDRAW X6 -->
<svg xmlns="http://www.w3.org/2000/svg" xml:space="preserve" width="100%" height="100%" version="1.1" style="shape-rendering:geometricPrecision; text-rendering:geometricPrecision; image-rendering:optimizeQuality; fill-rule:evenodd; clip-rule:evenodd"
viewBox="0 0 500 500"
 xmlns:xlink="http://www.w3.org/1999/xlink">
 <defs>
  <style type="text/css">
   <![CDATA[
    .str3 {stroke:#303030;stroke-width:5}
    .str0 {stroke:#303030;stroke-width:10}
    .str2 {stroke:#B1B1B1;stroke-width:7.5;stroke-linecap:round;stroke-dasharray:15.000000 15.000000}
    .str1 {stroke:#F2F2F2;stroke-width:10;stroke-linecap:round;stroke-dasharray:20.000000 30.000000}
    .fil1 {fill:none}
    .fil3 {fill:#F2F2F2}
    .fil2 {fill:url(#id0)}
    .fil0 {fill:url(#id1)}
   ]]>
  </style>
  <linearGradient id="id0" gradientUnits="userSpaceOnUse" x1="359.999" y1="200" x2="359.999" y2="300">
   <stop offset="0" style="stop-color:#404040"/>
   <stop offset="1" style="stop-color:#585858"/>
  </linearGradient>
  <linearGradient id="id1" gradientUnits="userSpaceOnUse" x1="27.002" y1="250" x2="422.998" y2="250">
   <stop offset="0" style="stop-color:#493100"/>
   <stop offset="1" style="stop-color:#926100"/>
  </linearGradient>
 </defs>
 <g id="Layer_x0020_1">
  <metadata id="CorelCorpID_0Corel-Layer"/>
  <path class="fil0 str0" d="M60 90l340 0c27,0 50,22 50,50l0 220c0,28 -23,50 -50,50l-340 0c-17,0 -30,-13 -30,-30l0 -260c0,-17 13,-30 30,-30z"/>
  <path class="fil1 str1" d="M75 120l320 0c14,0 25,11 25,25l0 210c0,14 -11,25 -25,25l-320 0c-8,0 -15,-7 -15,-15l0 -230c0,-8 7,-15 15,-15z"/>
  <path class="fil2 str0" d="M300 200l160 0c6,0 10,5 10,10l0 80c0,6 -4,10 -10,10l-160 0c-28,0 -50,-22 -50,-50 0,-27 22,-50 50,-50z"/>
  <path class="fil1 str2" d="M460 284l-161 0c-19,0 -34,-15 -34,-34 0,-19 15,-34 34,-34l161 0"/>
  <circle class="fil3 str3" cx="300" cy="250" r="20"/>
 </g>
</svg>
