<?xml version="1.0" encoding="UTF-8"?>
<!DOCTYPE svg PUBLIC "-//W3C//DTD SVG 1.1//EN" "http://www.w3.org/Graphics/SVG/1.1/DTD/svg11.dtd">
<!-- Creator: CorelDRAW X6 -->
<svg xmlns="http://www.w3.org/2000/svg" xml:space="preserve" width="100%" height="100%" version="1.1" style="shape-rendering:geometricPrecision; text-rendering:geometricPrecision; image-rendering:optimizeQuality; fill-rule:evenodd; clip-rule:evenodd"
viewBox="0 0 500 500"
 xmlns:xlink="http://www.w3.org/1999/xlink">
 <defs>
  <style type="text/css">
   <![CDATA[
    .str0 {stroke:#303030;stroke-width:10}
    .fil2 {fill:none}
    .fil0 {fill:#303030}
    .fil4 {fill:#B9E3FF}
    .fil5 {fill:#E5E5E5}
    .fil3 {fill:url(#id0)}
    .fil1 {fill:url(#id1)}
   ]]>
  </style>
  <linearGradient id="id0" gradientUnits="userSpaceOnUse" x1="304.399" y1="161.221" x2="195.601" y2="270.019">
   <stop offset="0" style="stop-color:#484848"/>
   <stop offset="1" style="stop-color:#303030"/>
  </linearGradient>
  <radialGradient id="id1" gradientUnits="objectBoundingBox" cx="50%" cy="50%" r="50%" fx="50%" fy="50%">
   <stop offset="0" style="stop-color:#00AAFF"/>
   <stop offset="0.470588" style="stop-color:#17A2FF"/>
   <stop offset="1" style="stop-color:#0078C8"/>
  </radialGradient>
 </defs>
 <g id="Layer_x0020_1">
  <metadata id="CorelCorpID_0Corel-Layer"/>
  <path class="fil0" d="M375 447c16,15 24,30 16,30l-44 0c-64,-16 -130,-16 -194,0l-44 0c-8,0 0,-15 16,-30l38 -36 0 -24c54,27 120,27 174,0l0 24c13,12 25,24 38,36z"/>
  <circle class="fil1 str0" cx="250" cy="216" r="192"/>
  <line class="fil2 str0" x1="58" y1="216" x2="442" y2= "216" />
  <circle class="fil3" cx="250" cy="216" r="80"/>
  <circle class="fil4" cx="250" cy="216" r="35"/>
  <circle class="fil5" cx="247" cy="86" r="15"/>
 </g>
</svg>
